<svg width="174" height="63" viewBox="0 0 174 63" fill="none" xmlns="http://www.w3.org/2000/svg">
<g filter="url(#filter0_d)">
<g clip-path="url(#clip0)">
<rect x="4" width="166" height="55" rx="27.5" fill="#FAFAFA"/>
<path d="M65.7263 22.148H71.0543C72.0383 22.148 72.8903 22.316 73.6103 22.652C74.3303 22.988 74.9183 23.45 75.3743 24.038C75.8303 24.614 76.1663 25.292 76.3823 26.072C76.6103 26.852 76.7243 27.686 76.7243 28.574C76.7243 29.462 76.6103 30.296 76.3823 31.076C76.1663 31.856 75.8303 32.54 75.3743 33.128C74.9183 33.704 74.3303 34.16 73.6103 34.496C72.8903 34.832 72.0383 35 71.0543 35H65.7263V22.148ZM67.9763 33.164H70.1903C71.0663 33.164 71.7803 33.05 72.3323 32.822C72.8963 32.582 73.3343 32.258 73.6463 31.85C73.9703 31.43 74.1863 30.944 74.2943 30.392C74.4143 29.828 74.4743 29.222 74.4743 28.574C74.4743 27.926 74.4143 27.326 74.2943 26.774C74.1863 26.21 73.9703 25.724 73.6463 25.316C73.3343 24.896 72.8963 24.572 72.3323 24.344C71.7803 24.104 71.0663 23.984 70.1903 23.984H67.9763V33.164ZM82.8745 35.252C82.1305 35.252 81.4645 35.132 80.8765 34.892C80.3005 34.64 79.8085 34.298 79.4005 33.866C79.0045 33.434 78.6985 32.918 78.4825 32.318C78.2785 31.718 78.1765 31.058 78.1765 30.338C78.1765 29.63 78.2785 28.976 78.4825 28.376C78.6985 27.776 79.0045 27.26 79.4005 26.828C79.8085 26.396 80.3005 26.06 80.8765 25.82C81.4645 25.568 82.1305 25.442 82.8745 25.442C83.6185 25.442 84.2785 25.568 84.8545 25.82C85.4425 26.06 85.9345 26.396 86.3305 26.828C86.7385 27.26 87.0445 27.776 87.2485 28.376C87.4645 28.976 87.5725 29.63 87.5725 30.338C87.5725 31.058 87.4645 31.718 87.2485 32.318C87.0445 32.918 86.7385 33.434 86.3305 33.866C85.9345 34.298 85.4425 34.64 84.8545 34.892C84.2785 35.132 83.6185 35.252 82.8745 35.252ZM82.8745 33.632C83.3305 33.632 83.7265 33.536 84.0625 33.344C84.3985 33.152 84.6745 32.9 84.8905 32.588C85.1065 32.276 85.2625 31.928 85.3585 31.544C85.4665 31.148 85.5205 30.746 85.5205 30.338C85.5205 29.942 85.4665 29.546 85.3585 29.15C85.2625 28.754 85.1065 28.406 84.8905 28.106C84.6745 27.794 84.3985 27.542 84.0625 27.35C83.7265 27.158 83.3305 27.062 82.8745 27.062C82.4185 27.062 82.0225 27.158 81.6865 27.35C81.3505 27.542 81.0745 27.794 80.8585 28.106C80.6425 28.406 80.4805 28.754 80.3725 29.15C80.2765 29.546 80.2285 29.942 80.2285 30.338C80.2285 30.746 80.2765 31.148 80.3725 31.544C80.4805 31.928 80.6425 32.276 80.8585 32.588C81.0745 32.9 81.3505 33.152 81.6865 33.344C82.0225 33.536 82.4185 33.632 82.8745 33.632ZM88.6124 25.694H90.7904L92.6084 32.642H92.6444L94.3904 25.694H96.4604L98.1344 32.642H98.1704L100.06 25.694H102.148L99.2324 35H97.1264L95.3984 28.088H95.3624L93.6524 35H91.4924L88.6124 25.694ZM103.648 25.694H105.592V27.062L105.628 27.098C105.94 26.582 106.348 26.18 106.852 25.892C107.356 25.592 107.914 25.442 108.526 25.442C109.546 25.442 110.35 25.706 110.938 26.234C111.526 26.762 111.82 27.554 111.82 28.61V35H109.768V29.15C109.744 28.418 109.588 27.89 109.3 27.566C109.012 27.23 108.562 27.062 107.95 27.062C107.602 27.062 107.29 27.128 107.014 27.26C106.738 27.38 106.504 27.554 106.312 27.782C106.12 27.998 105.97 28.256 105.862 28.556C105.754 28.856 105.7 29.174 105.7 29.51V35H103.648V25.694ZM114.218 22.148H116.27V35H114.218V22.148ZM122.952 35.252C122.208 35.252 121.542 35.132 120.954 34.892C120.378 34.64 119.886 34.298 119.478 33.866C119.082 33.434 118.776 32.918 118.56 32.318C118.356 31.718 118.254 31.058 118.254 30.338C118.254 29.63 118.356 28.976 118.56 28.376C118.776 27.776 119.082 27.26 119.478 26.828C119.886 26.396 120.378 26.06 120.954 25.82C121.542 25.568 122.208 25.442 122.952 25.442C123.696 25.442 124.356 25.568 124.932 25.82C125.52 26.06 126.012 26.396 126.408 26.828C126.816 27.26 127.122 27.776 127.326 28.376C127.542 28.976 127.65 29.63 127.65 30.338C127.65 31.058 127.542 31.718 127.326 32.318C127.122 32.918 126.816 33.434 126.408 33.866C126.012 34.298 125.52 34.64 124.932 34.892C124.356 35.132 123.696 35.252 122.952 35.252ZM122.952 33.632C123.408 33.632 123.804 33.536 124.14 33.344C124.476 33.152 124.752 32.9 124.968 32.588C125.184 32.276 125.34 31.928 125.436 31.544C125.544 31.148 125.598 30.746 125.598 30.338C125.598 29.942 125.544 29.546 125.436 29.15C125.34 28.754 125.184 28.406 124.968 28.106C124.752 27.794 124.476 27.542 124.14 27.35C123.804 27.158 123.408 27.062 122.952 27.062C122.496 27.062 122.1 27.158 121.764 27.35C121.428 27.542 121.152 27.794 120.936 28.106C120.72 28.406 120.558 28.754 120.45 29.15C120.354 29.546 120.306 29.942 120.306 30.338C120.306 30.746 120.354 31.148 120.45 31.544C120.558 31.928 120.72 32.276 120.936 32.588C121.152 32.9 121.428 33.152 121.764 33.344C122.1 33.536 122.496 33.632 122.952 33.632ZM137.33 32.93C137.33 33.182 137.36 33.362 137.42 33.47C137.492 33.578 137.624 33.632 137.816 33.632C137.876 33.632 137.948 33.632 138.032 33.632C138.116 33.632 138.212 33.62 138.32 33.596V35.018C138.248 35.042 138.152 35.066 138.032 35.09C137.924 35.126 137.81 35.156 137.69 35.18C137.57 35.204 137.45 35.222 137.33 35.234C137.21 35.246 137.108 35.252 137.024 35.252C136.604 35.252 136.256 35.168 135.98 35C135.704 34.832 135.524 34.538 135.44 34.118C135.032 34.514 134.528 34.802 133.928 34.982C133.34 35.162 132.77 35.252 132.218 35.252C131.798 35.252 131.396 35.192 131.012 35.072C130.628 34.964 130.286 34.802 129.986 34.586C129.698 34.358 129.464 34.076 129.284 33.74C129.116 33.392 129.032 32.99 129.032 32.534C129.032 31.958 129.134 31.49 129.338 31.13C129.554 30.77 129.83 30.488 130.166 30.284C130.514 30.08 130.898 29.936 131.318 29.852C131.75 29.756 132.182 29.684 132.614 29.636C132.986 29.564 133.34 29.516 133.676 29.492C134.012 29.456 134.306 29.402 134.558 29.33C134.822 29.258 135.026 29.15 135.17 29.006C135.326 28.85 135.404 28.622 135.404 28.322C135.404 28.058 135.338 27.842 135.206 27.674C135.086 27.506 134.93 27.38 134.738 27.296C134.558 27.2 134.354 27.14 134.126 27.116C133.898 27.08 133.682 27.062 133.478 27.062C132.902 27.062 132.428 27.182 132.056 27.422C131.684 27.662 131.474 28.034 131.426 28.538H129.374C129.41 27.938 129.554 27.44 129.806 27.044C130.058 26.648 130.376 26.33 130.76 26.09C131.156 25.85 131.6 25.682 132.092 25.586C132.584 25.49 133.088 25.442 133.604 25.442C134.06 25.442 134.51 25.49 134.954 25.586C135.398 25.682 135.794 25.838 136.142 26.054C136.502 26.27 136.79 26.552 137.006 26.9C137.222 27.236 137.33 27.65 137.33 28.142V32.93ZM135.278 30.338C134.966 30.542 134.582 30.668 134.126 30.716C133.67 30.752 133.214 30.812 132.758 30.896C132.542 30.932 132.332 30.986 132.128 31.058C131.924 31.118 131.744 31.208 131.588 31.328C131.432 31.436 131.306 31.586 131.21 31.778C131.126 31.958 131.084 32.18 131.084 32.444C131.084 32.672 131.15 32.864 131.282 33.02C131.414 33.176 131.57 33.302 131.75 33.398C131.942 33.482 132.146 33.542 132.362 33.578C132.59 33.614 132.794 33.632 132.974 33.632C133.202 33.632 133.448 33.602 133.712 33.542C133.976 33.482 134.222 33.38 134.45 33.236C134.69 33.092 134.888 32.912 135.044 32.696C135.2 32.468 135.278 32.192 135.278 31.868V30.338ZM148.484 35H146.54V33.74H146.504C146.228 34.28 145.826 34.67 145.298 34.91C144.77 35.138 144.212 35.252 143.624 35.252C142.892 35.252 142.25 35.126 141.698 34.874C141.158 34.61 140.708 34.256 140.348 33.812C139.988 33.368 139.718 32.846 139.538 32.246C139.358 31.634 139.268 30.98 139.268 30.284C139.268 29.444 139.382 28.718 139.61 28.106C139.838 27.494 140.138 26.99 140.51 26.594C140.894 26.198 141.326 25.91 141.806 25.73C142.298 25.538 142.796 25.442 143.3 25.442C143.588 25.442 143.882 25.472 144.182 25.532C144.482 25.58 144.77 25.664 145.046 25.784C145.322 25.904 145.574 26.06 145.802 26.252C146.042 26.432 146.24 26.648 146.396 26.9H146.432V22.148H148.484V35ZM141.32 30.446C141.32 30.842 141.368 31.232 141.464 31.616C141.572 32 141.728 32.342 141.932 32.642C142.148 32.942 142.418 33.182 142.742 33.362C143.066 33.542 143.45 33.632 143.894 33.632C144.35 33.632 144.74 33.536 145.064 33.344C145.4 33.152 145.67 32.9 145.874 32.588C146.09 32.276 146.246 31.928 146.342 31.544C146.45 31.148 146.504 30.746 146.504 30.338C146.504 29.306 146.27 28.502 145.802 27.926C145.346 27.35 144.722 27.062 143.93 27.062C143.45 27.062 143.042 27.164 142.706 27.368C142.382 27.56 142.112 27.818 141.896 28.142C141.692 28.454 141.542 28.814 141.446 29.222C141.362 29.618 141.32 30.026 141.32 30.446Z" fill="#11253E"/>
<path d="M37.0391 18.0705C34.4821 18.0705 32.2111 19.2738 30.7461 21.1408C30.5131 21.1078 30.2811 21.0705 30.0391 21.0705C27.5091 21.0705 25.4404 22.9557 25.1074 25.3947C22.5404 26.2687 20.7512 28.8271 21.0762 31.7561C21.4172 34.8261 24.1649 37.0705 27.2539 37.0705H34.0391V30.0705C34.0391 29.5185 34.4871 29.0705 35.0391 29.0705C35.5911 29.0705 36.0391 29.5185 36.0391 30.0705V37.0705H42.8262C45.9092 37.0705 48.652 34.8347 49 31.7717C49.332 28.8487 47.5589 26.2934 45.0059 25.4064C44.6679 21.2994 41.2331 18.0705 37.0391 18.0705ZM36.0391 37.0705H34.0391V42.6564L31.7461 40.3635C31.6529 40.2677 31.5415 40.1915 31.4183 40.1395C31.2952 40.0875 31.1629 40.0607 31.0293 40.0607C30.8304 40.0608 30.636 40.1202 30.471 40.2313C30.3059 40.3424 30.1778 40.5002 30.103 40.6845C30.0281 40.8688 30.0099 41.0713 30.0507 41.266C30.0915 41.4607 30.1895 41.6388 30.332 41.7775L34.332 45.7775C34.5196 45.965 34.7739 46.0703 35.0391 46.0703C35.3042 46.0703 35.5586 45.965 35.7461 45.7775L39.7461 41.7775C39.8421 41.6854 39.9187 41.575 39.9715 41.4529C40.0243 41.3308 40.0522 41.1993 40.0535 41.0663C40.0549 40.9332 40.0297 40.8013 39.9794 40.6781C39.9291 40.5549 39.8547 40.443 39.7606 40.3489C39.6666 40.2549 39.5546 40.1805 39.4315 40.1302C39.3083 40.0799 39.1763 40.0547 39.0433 40.0561C38.9102 40.0574 38.7788 40.0853 38.6567 40.1381C38.5345 40.1909 38.4242 40.2675 38.332 40.3635L36.0391 42.6564V37.0705Z" fill="#5CA5DA"/>
</g>
</g>
<defs>
<filter id="filter0_d" x="0" y="0" width="174" height="63" filterUnits="userSpaceOnUse" color-interpolation-filters="sRGB">
<feFlood flood-opacity="0" result="BackgroundImageFix"/>
<feColorMatrix in="SourceAlpha" type="matrix" values="0 0 0 0 0 0 0 0 0 0 0 0 0 0 0 0 0 0 127 0"/>
<feOffset dy="4"/>
<feGaussianBlur stdDeviation="2"/>
<feColorMatrix type="matrix" values="0 0 0 0 0 0 0 0 0 0 0 0 0 0 0 0 0 0 0.25 0"/>
<feBlend mode="normal" in2="BackgroundImageFix" result="effect1_dropShadow"/>
<feBlend mode="normal" in="SourceGraphic" in2="effect1_dropShadow" result="shape"/>
</filter>
<clipPath id="clip0">
<rect x="4" width="166" height="55" rx="27.5" fill="white"/>
</clipPath>
</defs>
</svg>
