<svg width="174" height="63" viewBox="0 0 174 63" fill="none" xmlns="http://www.w3.org/2000/svg">
<g filter="url(#filter0_d)">
<g clip-path="url(#clip0)">
<rect x="4" width="166" height="55" rx="27.5" fill="#FAFAFA"/>
<path d="M65.3628 22.148H67.6488L69.9708 31.976H70.0068L72.5988 22.148H74.9028L77.4228 31.976H77.4588L79.8528 22.148H82.1388L78.5928 35H76.3068L73.7328 25.172H73.6968L71.0688 35H68.7468L65.3628 22.148ZM89.5864 29.528C89.5624 29.204 89.4904 28.892 89.3704 28.592C89.2624 28.292 89.1064 28.034 88.9024 27.818C88.7104 27.59 88.4704 27.41 88.1824 27.278C87.9064 27.134 87.5944 27.062 87.2464 27.062C86.8864 27.062 86.5564 27.128 86.2564 27.26C85.9684 27.38 85.7164 27.554 85.5004 27.782C85.2964 27.998 85.1284 28.256 84.9964 28.556C84.8764 28.856 84.8104 29.18 84.7984 29.528H89.5864ZM84.7984 30.878C84.7984 31.238 84.8464 31.586 84.9424 31.922C85.0504 32.258 85.2064 32.552 85.4104 32.804C85.6144 33.056 85.8724 33.26 86.1844 33.416C86.4964 33.56 86.8684 33.632 87.3004 33.632C87.9004 33.632 88.3804 33.506 88.7404 33.254C89.1124 32.99 89.3884 32.6 89.5684 32.084H91.5124C91.4044 32.588 91.2184 33.038 90.9544 33.434C90.6904 33.83 90.3724 34.166 90.0004 34.442C89.6284 34.706 89.2084 34.904 88.7404 35.036C88.2844 35.18 87.8044 35.252 87.3004 35.252C86.5684 35.252 85.9204 35.132 85.3564 34.892C84.7924 34.652 84.3124 34.316 83.9164 33.884C83.5324 33.452 83.2384 32.936 83.0344 32.336C82.8424 31.736 82.7464 31.076 82.7464 30.356C82.7464 29.696 82.8484 29.072 83.0524 28.484C83.2684 27.884 83.5684 27.362 83.9524 26.918C84.3484 26.462 84.8224 26.102 85.3744 25.838C85.9264 25.574 86.5504 25.442 87.2464 25.442C87.9784 25.442 88.6324 25.598 89.2084 25.91C89.7964 26.21 90.2824 26.612 90.6664 27.116C91.0504 27.62 91.3264 28.202 91.4944 28.862C91.6744 29.51 91.7224 30.182 91.6384 30.878H84.7984ZM93.4324 22.148H95.4844V26.9H95.5204C95.6644 26.672 95.8384 26.468 96.0424 26.288C96.2464 26.108 96.4684 25.958 96.7084 25.838C96.9604 25.706 97.2184 25.61 97.4824 25.55C97.7584 25.478 98.0284 25.442 98.2924 25.442C99.0244 25.442 99.6604 25.574 100.2 25.838C100.752 26.09 101.208 26.444 101.568 26.9C101.928 27.344 102.198 27.866 102.378 28.466C102.558 29.066 102.648 29.708 102.648 30.392C102.648 31.016 102.564 31.622 102.396 32.21C102.24 32.798 101.994 33.32 101.658 33.776C101.334 34.22 100.92 34.58 100.416 34.856C99.9124 35.12 99.3184 35.252 98.6344 35.252C98.3224 35.252 98.0044 35.228 97.6804 35.18C97.3684 35.144 97.0684 35.066 96.7804 34.946C96.4924 34.826 96.2284 34.67 95.9884 34.478C95.7604 34.286 95.5684 34.034 95.4124 33.722H95.3764V35H93.4324V22.148ZM100.596 30.356C100.596 29.936 100.542 29.528 100.434 29.132C100.326 28.736 100.164 28.388 99.9484 28.088C99.7324 27.776 99.4624 27.53 99.1384 27.35C98.8144 27.158 98.4424 27.062 98.0224 27.062C97.1584 27.062 96.5044 27.362 96.0604 27.962C95.6284 28.562 95.4124 29.36 95.4124 30.356C95.4124 30.824 95.4664 31.262 95.5744 31.67C95.6944 32.066 95.8684 32.408 96.0964 32.696C96.3244 32.984 96.5944 33.212 96.9064 33.38C97.2304 33.548 97.6024 33.632 98.0224 33.632C98.4904 33.632 98.8864 33.536 99.2104 33.344C99.5344 33.152 99.7984 32.906 100.002 32.606C100.218 32.294 100.368 31.946 100.452 31.562C100.548 31.166 100.596 30.764 100.596 30.356ZM108.582 22.148H110.922L114.144 32.318H114.18L117.474 22.148H119.76L115.368 35H112.866L108.582 22.148ZM121.166 22.148H123.218V24.092H121.166V22.148ZM121.166 25.694H123.218V35H121.166V25.694ZM132.024 29.528C132 29.204 131.928 28.892 131.808 28.592C131.7 28.292 131.544 28.034 131.34 27.818C131.148 27.59 130.908 27.41 130.62 27.278C130.344 27.134 130.032 27.062 129.684 27.062C129.324 27.062 128.994 27.128 128.694 27.26C128.406 27.38 128.154 27.554 127.938 27.782C127.734 27.998 127.566 28.256 127.434 28.556C127.314 28.856 127.248 29.18 127.236 29.528H132.024ZM127.236 30.878C127.236 31.238 127.284 31.586 127.38 31.922C127.488 32.258 127.644 32.552 127.848 32.804C128.052 33.056 128.31 33.26 128.622 33.416C128.934 33.56 129.306 33.632 129.738 33.632C130.338 33.632 130.818 33.506 131.178 33.254C131.55 32.99 131.826 32.6 132.006 32.084H133.95C133.842 32.588 133.656 33.038 133.392 33.434C133.128 33.83 132.81 34.166 132.438 34.442C132.066 34.706 131.646 34.904 131.178 35.036C130.722 35.18 130.242 35.252 129.738 35.252C129.006 35.252 128.358 35.132 127.794 34.892C127.23 34.652 126.75 34.316 126.354 33.884C125.97 33.452 125.676 32.936 125.472 32.336C125.28 31.736 125.184 31.076 125.184 30.356C125.184 29.696 125.286 29.072 125.49 28.484C125.706 27.884 126.006 27.362 126.39 26.918C126.786 26.462 127.26 26.102 127.812 25.838C128.364 25.574 128.988 25.442 129.684 25.442C130.416 25.442 131.07 25.598 131.646 25.91C132.234 26.21 132.72 26.612 133.104 27.116C133.488 27.62 133.764 28.202 133.932 28.862C134.112 29.51 134.16 30.182 134.076 30.878H127.236ZM134.969 25.694H137.147L138.965 32.642H139.001L140.747 25.694H142.817L144.491 32.642H144.527L146.417 25.694H148.505L145.589 35H143.483L141.755 28.088H141.719L140.009 35H137.849L134.969 25.694Z" fill="#11253E"/>
<path d="M46.707 21.793L40.207 15.293C40.019 15.105 39.765 15 39.5 15H29C27.895 15 27 15.895 27 17V39C27 40.105 27.895 41 29 41H45C46.105 41 47 40.105 47 39V22.5C47 22.235 46.895 21.981 46.707 21.793ZM40 34H32C31.448 34 31 33.552 31 33C31 32.448 31.448 32 32 32H40C40.552 32 41 32.448 41 33C41 33.552 40.552 34 40 34ZM42 30H32C31.448 30 31 29.552 31 29C31 28.448 31.448 28 32 28H42C42.552 28 43 28.448 43 29C43 29.552 42.552 30 42 30ZM40 23C39.448 23 39 22.552 39 22V16.904L45.096 23H40Z" fill="black"/>
</g>
</g>
<defs>
<filter id="filter0_d" x="0" y="0" width="174" height="63" filterUnits="userSpaceOnUse" color-interpolation-filters="sRGB">
<feFlood flood-opacity="0" result="BackgroundImageFix"/>
<feColorMatrix in="SourceAlpha" type="matrix" values="0 0 0 0 0 0 0 0 0 0 0 0 0 0 0 0 0 0 127 0"/>
<feOffset dy="4"/>
<feGaussianBlur stdDeviation="2"/>
<feColorMatrix type="matrix" values="0 0 0 0 0 0 0 0 0 0 0 0 0 0 0 0 0 0 0.25 0"/>
<feBlend mode="normal" in2="BackgroundImageFix" result="effect1_dropShadow"/>
<feBlend mode="normal" in="SourceGraphic" in2="effect1_dropShadow" result="shape"/>
</filter>
<clipPath id="clip0">
<rect x="4" width="166" height="55" rx="27.5" fill="white"/>
</clipPath>
</defs>
</svg>
