<svg width="186" height="128" viewBox="0 0 186 128" fill="none" xmlns="http://www.w3.org/2000/svg">
<rect x="1.32294" y="1.32294" width="182.566" height="124.357" rx="14.5524" fill="white" stroke="#D9D9D9" stroke-width="2.64589"/>
<path fill-rule="evenodd" clip-rule="evenodd" d="M148.675 73.8102H153.244H153.248C153.725 73.8194 154.123 73.436 154.14 72.9483V60.0178C154.14 58.3937 154.225 56.927 154.866 55.4604C155.306 54.3447 156.343 53.5936 157.52 53.538C160.442 53.538 160.414 56.808 160.392 59.3769C160.39 59.5935 160.388 59.8052 160.388 60.0095V73.056C160.444 73.4746 160.786 73.792 161.199 73.8102H165.808C166.245 73.8195 166.621 73.4971 166.688 73.056V57.9379C166.688 55.6137 166.688 52.378 165.492 50.4556C164.197 48.384 162.193 47.6259 160.14 47.6259C156.976 47.6259 155.179 49.1919 153.897 52.4774H153.807V48.8025C153.715 48.4183 153.383 48.144 152.996 48.1313H148.744C148.295 48.12 147.912 48.4622 147.864 48.9185V72.9483C147.87 73.409 148.225 73.7861 148.675 73.8102ZM144.378 61.207C144.378 53.6251 140.698 47.6591 133.895 47.6591C127.266 47.6591 123.586 53.5257 123.586 60.9542C123.586 68.3827 127.221 74.3488 133.895 74.3488C140.321 74.3488 144.378 68.536 144.378 61.207ZM130.346 60.1962C130.346 57.2629 130.561 52.5646 133.941 52.5646C135.393 52.5646 136.419 53.2317 136.935 54.8889C137.535 56.8071 137.62 59.235 137.62 61.2568C137.62 64.3392 137.486 69.3938 133.896 69.3938C130.345 69.3938 130.346 63.2654 130.346 60.2934L130.346 60.1962ZM44.6177 73.8601H49.198H49.2021C49.432 73.8654 49.6546 73.7772 49.8206 73.6146C49.9865 73.4521 50.0823 73.2287 50.0865 72.9939V60.2623L50.0864 60.063C50.0845 57.2947 50.082 53.6334 53.251 53.6334C56.1806 53.6334 56.1353 56.8503 56.0987 59.4481C56.0947 59.7283 56.0909 60.0013 56.0909 60.2623V72.9981C56.0987 73.458 56.4526 73.8339 56.9023 73.8601H61.4948C61.724 73.8643 61.9455 73.7755 62.1106 73.6131C62.2757 73.4507 62.3709 73.228 62.3752 72.9939V60.2623C62.3752 60.1646 62.375 60.0635 62.3748 59.9596V59.9596C62.372 58.6106 62.3683 56.7903 62.8052 55.6594C63.2507 54.5033 64.3277 53.7293 65.5437 53.6914C66.8703 53.6914 67.8967 54.1471 68.2375 55.7629C68.4115 56.5406 68.3889 58.3433 68.374 59.5388V59.5388C68.3705 59.821 68.3674 60.0693 68.3674 60.2623V72.9981C68.3732 73.4588 68.7282 73.8359 69.1788 73.8601H73.7591C73.989 73.8654 74.2116 73.7772 74.3776 73.6146C74.5436 73.4521 74.6393 73.2287 74.6435 72.9939V57.8345C74.6435 57.4649 74.6498 57.0871 74.6561 56.7053C74.6936 54.4418 74.7335 52.0323 73.4873 50.3024C71.9766 48.34 69.5471 47.3622 67.1316 47.7443C64.7161 48.1263 62.6901 49.8089 61.8315 52.146C60.5455 49.1092 58.7076 47.6964 55.884 47.6964C53.0603 47.6964 50.9628 49.1092 49.8512 52.146H49.766V49.0097C49.7419 48.5627 49.3923 48.2058 48.9546 48.1811H44.6826C44.2108 48.1764 43.8217 48.5572 43.8063 49.0387V73.0685C43.8479 73.5009 44.1928 73.8373 44.6177 73.8601ZM36.6472 74.0422C36.3455 74.3095 35.9119 74.3542 35.564 74.1541C34.2659 73.0512 33.8745 72.455 33.2735 71.5394C33.1701 71.3819 33.0606 71.215 32.9391 71.0344C30.4197 73.6528 28.6387 74.4358 25.3809 74.4358C21.5227 74.4358 18.5205 72.0039 18.5205 67.1399C18.5205 63.3407 20.549 60.7596 23.3889 59.4918C25.4859 58.552 28.2839 58.2604 30.7029 58.0082C31.1527 57.9613 31.5893 57.9158 32.006 57.8677V57.2628C32.006 57.1474 32.0069 57.0297 32.0078 56.9105C32.0158 55.8791 32.0248 54.7308 31.4502 53.8655C30.8903 53.0037 29.8274 52.6516 28.878 52.6516C27.1295 52.6516 25.5716 53.5672 25.1902 55.4606C25.1419 55.9023 24.8091 56.2557 24.3788 56.3223L19.9729 55.8293C19.7531 55.7972 19.5557 55.6744 19.4269 55.4896C19.2981 55.3048 19.2491 55.0742 19.2913 54.8516C20.3096 49.3496 25.178 47.6882 29.5393 47.6882C31.7707 47.6882 34.6836 48.2931 36.4362 50.0166C38.4937 51.9837 38.4809 54.5589 38.467 57.3732C38.4659 57.6055 38.4647 57.8395 38.4647 58.0749V65.3625C38.4647 67.3252 39.1778 68.3015 39.9289 69.3299C40.0181 69.4521 40.1079 69.5749 40.1971 69.7003C40.4892 70.1146 40.5541 70.6325 40.1971 70.9432C39.2599 71.7428 37.5965 73.2178 36.6837 74.0505L36.6472 74.0422ZM32.0282 62.6321L32.0283 62.8589C32.03 64.5822 32.0313 66.0435 31.1722 67.6038C30.4419 68.9212 29.2857 69.7333 27.9956 69.7333C26.2389 69.7333 25.2124 68.3661 25.2124 66.336C25.2124 62.3503 28.7136 61.6253 32.0282 61.6253V62.6321ZM99.9977 69.3126L99.9978 69.3127C100.087 69.435 100.177 69.558 100.266 69.6835C100.575 70.1144 100.639 70.6198 100.246 70.9057C99.3087 71.7053 97.6454 73.1844 96.7325 74.013C96.429 74.2765 95.997 74.3195 95.6493 74.1207C94.3457 73.0131 93.9595 72.4256 93.3499 71.4981C93.248 71.3432 93.14 71.1789 93.0204 71.001C90.5051 73.6194 88.7119 74.4025 85.4663 74.4025C81.6081 74.4025 78.6059 71.9705 78.6059 67.1107C78.6059 63.3073 80.6222 60.7262 83.4946 59.4584C85.5961 58.5151 88.4098 58.2248 90.8359 57.9745C91.2761 57.929 91.7035 57.8849 92.1116 57.8385V57.246C92.1116 57.1317 92.1125 57.0152 92.1134 56.8972L92.1134 56.8955C92.1214 55.8637 92.1303 54.7149 91.5518 53.8528C91.0081 52.9911 89.9249 52.6348 88.9796 52.6348C87.2311 52.6348 85.6813 53.5504 85.2959 55.4438C85.2462 55.8848 84.9141 56.2376 84.4845 56.3055L80.042 55.8167C79.8206 55.7856 79.6215 55.6627 79.4917 55.4768C79.3619 55.291 79.313 55.0587 79.3564 54.8348C80.3788 49.3286 85.2472 47.6714 89.6085 47.6714C91.8357 47.6714 94.7487 48.2763 96.5054 49.9998C98.5671 51.9568 98.5526 54.512 98.5367 57.3119L98.5366 57.3142C98.5353 57.5604 98.5339 57.8084 98.5339 58.0581V65.3499C98.5339 67.3085 99.2467 68.2844 99.9977 69.3126ZM88.0855 69.7084C89.3716 69.7084 90.5319 68.8964 91.2581 67.583C92.1202 66.0143 92.1193 64.5461 92.1183 62.8013L92.1182 62.6155V61.6046C88.8036 61.6046 85.3024 62.3255 85.3024 66.3152C85.3024 68.3412 86.3288 69.7084 88.0855 69.7084ZM104.143 48.9556V52.3777C104.141 52.6125 104.233 52.838 104.398 53.0016C104.562 53.1653 104.786 53.2527 105.015 53.2436H112.902L103.859 66.5015C103.446 67.2126 103.251 68.0336 103.299 68.8589V72.3598C103.299 72.8652 103.847 73.4411 104.37 73.1552C109.358 70.5143 115.289 70.5035 120.286 73.1262C120.858 73.4287 121.398 72.8445 121.398 72.339V68.66C121.382 68.0975 121.072 67.5866 120.586 67.3218C117.953 65.8096 114.89 65.3663 111.993 65.4367L119.799 54.0598C120.525 53.0406 120.931 52.3943 120.931 51.9013V48.9556C120.933 48.7216 120.842 48.4968 120.678 48.3332C120.514 48.1697 120.292 48.0817 120.063 48.0897H104.999C104.77 48.0765 104.546 48.1632 104.383 48.3283C104.219 48.4933 104.132 48.7213 104.143 48.9556Z" fill="black"/>
<path fill-rule="evenodd" clip-rule="evenodd" d="M111.68 89.1393C112.723 86.4919 115.043 80.559 113.94 79.1213H113.948C112.849 77.6806 106.683 78.4367 103.909 78.7767L103.903 78.7775C103.059 78.881 102.929 78.1311 103.688 77.5884C108.613 74.0544 116.682 75.0653 117.62 76.2585C118.557 77.4517 117.364 85.713 112.751 89.6572C112.041 90.262 111.364 89.9389 111.68 89.1393ZM78.5364 93.2243C89.2631 93.2243 101.755 89.7649 110.359 83.281V83.2934C111.783 82.1996 110.562 80.5921 109.11 81.2219C99.7173 85.2677 89.6349 87.3796 79.4411 87.4365C65.2984 87.4365 51.6182 83.4757 40.5507 76.9006C39.581 76.3248 38.8589 77.3398 39.6703 78.0814C50.3252 87.8987 64.1858 93.299 78.5364 93.2243Z" fill="#FF9900"/>
</svg>
