<svg width="186" height="128" viewBox="0 0 186 128" fill="none" xmlns="http://www.w3.org/2000/svg">
<rect x="1.32294" y="1.32294" width="182.566" height="124.357" rx="14.5524" fill="white" stroke="#D9D9D9" stroke-width="2.64589"/>
<path fill-rule="evenodd" clip-rule="evenodd" d="M79.61 97.6238L80.8124 89.9554L78.1339 89.8927H65.3438L74.2325 33.3045C74.2602 33.1331 74.3497 32.9741 74.4804 32.8609C74.6118 32.7477 74.7792 32.6857 74.9544 32.6857H96.5206C103.681 32.6857 108.622 34.1813 111.201 37.1338C112.41 38.5189 113.181 39.9667 113.554 41.5593C113.944 43.2308 113.951 45.2276 113.57 47.6635L113.542 47.8406V49.4016L114.751 50.0896C115.77 50.6321 116.579 51.2529 117.2 51.9635C118.234 53.1482 118.903 54.6535 119.186 56.4375C119.479 58.2727 119.382 60.457 118.903 62.9297C118.351 65.7735 117.46 68.2508 116.255 70.2773C115.147 72.1447 113.735 73.6941 112.059 74.8942C110.458 76.0348 108.557 76.9007 106.408 77.4548C104.324 77.9993 101.949 78.2741 99.344 78.2741H97.6657C96.4659 78.2741 95.3002 78.708 94.385 79.4859C93.4673 80.2799 92.8607 81.365 92.6745 82.5515L92.5477 83.2421L90.423 96.7586L90.3271 97.2545C90.3013 97.4117 90.2575 97.4899 90.1931 97.5429C90.1358 97.5914 90.0534 97.6238 89.9729 97.6238H79.61Z" fill="#28356A"/>
<path fill-rule="evenodd" clip-rule="evenodd" d="M115.896 48.021C115.832 48.4342 115.758 48.8564 115.676 49.2903C112.832 63.9519 103.101 69.0169 90.6745 69.0169H84.347C82.8271 69.0169 81.5462 70.1246 81.3098 71.63L77.1527 98.1061C76.9988 99.0947 77.7574 99.9851 78.7505 99.9851H89.9732C91.3018 99.9851 92.4307 99.0159 92.64 97.7L92.7502 97.1277L94.8632 83.6643L94.9991 82.9259C95.2058 81.6055 96.3373 80.6355 97.6659 80.6355H99.3442C110.217 80.6355 118.729 76.2035 121.217 63.3771C122.256 58.0191 121.718 53.5451 118.968 50.3986C118.136 49.45 117.104 48.6624 115.896 48.021Z" fill="#298FC2"/>
<path fill-rule="evenodd" clip-rule="evenodd" d="M112.92 46.8302C112.485 46.7028 112.037 46.5877 111.577 46.4836C111.115 46.3821 110.642 46.2922 110.154 46.2133C108.448 45.9366 106.579 45.8053 104.576 45.8053H87.6728C87.2561 45.8053 86.8607 45.8997 86.5071 46.0704C85.7272 46.4468 85.1482 47.1878 85.0078 48.095L81.4116 70.9636L81.3086 71.6302C81.5449 70.1249 82.8259 69.0172 84.3458 69.0172H90.6732C103.1 69.0172 112.831 63.9496 115.675 49.2906C115.76 48.8567 115.831 48.4345 115.895 48.0213C115.176 47.6378 114.396 47.31 113.557 47.0307C113.35 46.9615 113.136 46.8949 112.92 46.8302Z" fill="#22284F"/>
<path fill-rule="evenodd" clip-rule="evenodd" d="M85.0087 48.0949C85.1491 47.1877 85.7281 46.4467 86.508 46.0729C86.8641 45.9016 87.257 45.8072 87.6736 45.8072H104.577C106.579 45.8072 108.449 45.9391 110.155 46.2158C110.642 46.2941 111.116 46.3846 111.578 46.4861C112.038 46.5896 112.486 46.7053 112.921 46.8321C113.137 46.8967 113.351 46.964 113.56 47.0306C114.399 47.3099 115.179 47.6404 115.898 48.0212C116.745 42.6031 115.891 38.9141 112.974 35.5737C109.757 31.8957 103.952 30.3218 96.5231 30.3218H74.9562C73.4389 30.3218 72.1445 31.4294 71.91 32.9374L62.9273 90.1075C62.7502 91.2385 63.619 92.2589 64.755 92.2589H78.0694L85.0087 48.0949Z" fill="#28356A"/>
</svg>
