<svg width="186" height="128" viewBox="0 0 186 128" fill="none" xmlns="http://www.w3.org/2000/svg">
<rect x="1.32294" y="1.32294" width="182.566" height="124.357" rx="14.5524" fill="white" stroke="#D9D9D9" stroke-width="2.64589"/>
<path fill-rule="evenodd" clip-rule="evenodd" d="M87.4705 83.3879V67.4017H95.7213C99.1022 67.4017 101.956 66.2688 104.282 64.0345L104.841 63.4681C109.09 58.8421 108.811 51.6358 104.282 47.356C102.018 45.0902 98.9161 43.863 95.7213 43.9259H82.4766V83.3879H87.4705ZM87.4692 62.5553V48.7719H95.8454C97.6448 48.7719 99.351 49.4642 100.623 50.723C103.322 53.3663 103.384 57.772 100.778 60.5098C99.5062 61.8629 97.7068 62.6182 95.8454 62.5553H87.4692ZM128.134 58.496C125.994 56.5134 123.078 55.5064 119.387 55.5064C114.641 55.5064 111.074 57.2687 108.717 60.7617L113.121 63.5625C114.734 61.1708 116.936 59.975 119.728 59.975C121.496 59.975 123.202 60.6359 124.536 61.8317C125.839 62.9646 126.583 64.6009 126.583 66.3317V67.4961C124.66 66.4261 122.241 65.8597 119.263 65.8597C115.789 65.8597 112.997 66.6779 110.919 68.3457C108.841 70.0136 107.786 72.2164 107.786 75.0171C107.724 77.5661 108.81 79.9892 110.733 81.6256C112.687 83.3879 115.168 84.269 118.084 84.269C121.527 84.269 124.257 82.727 126.335 79.6431H126.552V83.3879H131.329V66.7408C131.329 63.2478 130.274 60.4785 128.134 58.496ZM114.581 78.4158C113.557 77.6606 112.936 76.4333 112.936 75.1116C112.936 73.6326 113.619 72.4053 114.953 71.4297C116.318 70.4542 118.024 69.9507 120.041 69.9507C122.833 69.9192 125.004 70.5486 126.555 71.8074C126.555 73.9472 125.718 75.8039 124.074 77.3774C122.584 78.8879 120.568 79.7375 118.458 79.7375C117.062 79.769 115.697 79.297 114.581 78.4158ZM142.065 95.2516L158.753 56.3875H153.325L145.601 75.7724H145.508L137.598 56.3875H132.17L143.12 81.657L136.916 95.2516H142.065Z" fill="#3C4043"/>
<path d="M70.2323 63.9402C70.2323 62.3982 70.1082 60.8562 69.8601 59.3457H48.7988V68.0626H60.8648C60.3685 70.8633 58.7556 73.3808 56.3982 74.9543V80.6187H63.5944C67.8129 76.6851 70.2323 70.8633 70.2323 63.9402Z" fill="#4285F4"/>
<path d="M48.801 86.0944C54.8185 86.0944 59.9055 84.0804 63.5966 80.6188L56.4004 74.9544C54.3843 76.3391 51.8098 77.1258 48.801 77.1258C42.9696 77.1258 38.0378 73.1293 36.2698 67.7795H28.8564V73.6328C32.6406 81.2797 40.3641 86.0944 48.801 86.0944Z" fill="#34A853"/>
<path d="M36.27 67.7795C35.3393 64.9788 35.3393 61.9263 36.27 59.0941V53.2723H28.8555C25.6601 59.6605 25.6601 67.2131 28.8555 73.6012L36.27 67.7795Z" fill="#FBBC04"/>
<path d="M48.801 49.7477C51.9959 49.6848 55.0667 50.9121 57.362 53.1464L63.7517 46.6638C59.6884 42.8246 54.3533 40.7161 48.801 40.7791C40.3641 40.7791 32.6406 45.6253 28.8564 53.2722L36.2698 59.1254C38.0378 53.7443 42.9696 49.7477 48.801 49.7477Z" fill="#EA4335"/>
</svg>
