<svg width="186" height="128" viewBox="0 0 186 128" fill="none" xmlns="http://www.w3.org/2000/svg">
<rect x="1.32294" y="1.32294" width="182.566" height="124.357" rx="14.5524" fill="white" stroke="#D9D9D9" stroke-width="2.64589"/>
<path fill-rule="evenodd" clip-rule="evenodd" d="M50.6954 44.1502C49.1408 46.0123 46.6534 47.4811 44.1661 47.2712C43.8552 44.7534 45.0729 42.0782 46.498 40.4258C48.0526 38.5112 50.7731 37.1474 52.9754 37.0425C53.2345 39.6652 52.2241 42.2355 50.6954 44.1502ZM52.9496 47.7695C50.7583 47.6418 48.7588 48.4366 47.1438 49.0785C46.1045 49.4916 45.2244 49.8415 44.5548 49.8415C43.8034 49.8415 42.887 49.4729 41.858 49.0592C40.5097 48.517 38.9683 47.8971 37.3518 47.9269C33.6467 47.9793 30.2007 50.1037 28.3093 53.4871C24.4228 60.2538 27.2988 70.2728 31.0557 75.7806C32.8953 78.5082 35.0977 81.4982 37.9996 81.3933C39.2763 81.3445 40.1946 80.95 41.145 80.5418C42.2392 80.0718 43.3759 79.5836 45.1507 79.5836C46.864 79.5836 47.951 80.0591 48.9944 80.5156C49.9865 80.9496 50.9393 81.3664 52.3537 81.3408C55.3592 81.2884 57.2506 78.6131 59.0902 75.8855C61.0755 72.9579 61.9479 70.1008 62.0803 69.6672C62.0878 69.6425 62.093 69.6256 62.0958 69.6171C62.0926 69.6139 62.0681 69.6025 62.0248 69.5824C61.3612 69.2749 56.2888 66.9243 56.2402 60.621C56.1913 55.3303 60.2634 52.6497 60.9044 52.2278C60.9435 52.2021 60.9698 52.1848 60.9817 52.1757C58.3907 48.294 54.3487 47.8744 52.9496 47.7695ZM73.7542 81.0523V40.1635H88.9115C96.7363 40.1635 102.203 45.6188 102.203 53.592C102.203 61.5652 96.6326 67.073 88.7042 67.073H80.0244V81.0523H73.7542ZM80.0252 45.514H87.2541C92.6952 45.514 95.8044 48.4515 95.8044 53.6184C95.8044 58.7852 92.6952 61.7489 87.2282 61.7489H80.0252V45.514ZM122.906 76.148C121.247 79.3477 117.594 81.3673 113.656 81.3673C107.826 81.3673 103.758 77.8528 103.758 72.5548C103.758 67.3093 107.696 64.2931 114.977 63.8472L122.802 63.3751V61.1196C122.802 57.7887 120.651 55.979 116.817 55.979C113.656 55.979 111.35 57.6313 110.883 60.1491H105.235C105.416 54.8512 110.339 50.9957 116.998 50.9957C124.175 50.9957 128.839 54.7987 128.839 60.6999V81.0525H123.035V76.148H122.906ZM115.341 76.515C111.999 76.515 109.874 74.8889 109.874 72.3973C109.874 69.827 111.921 68.332 115.833 68.0959L122.803 67.6501V69.9581C122.803 73.7873 119.59 76.515 115.341 76.515ZM148.092 82.6524C145.579 89.8125 142.703 92.173 136.588 92.173C136.121 92.173 134.567 92.1206 134.204 92.0156V87.1111C134.593 87.1635 135.551 87.216 136.044 87.216C138.816 87.216 140.371 86.0358 141.329 82.9671L141.899 81.1574L131.276 51.3891H137.832L145.216 75.5447H145.345L152.73 51.3891H159.104L148.092 82.6524Z" fill="black"/>
</svg>
