<svg width="1440" height="401" viewBox="0 0 1440 401" fill="none" xmlns="http://www.w3.org/2000/svg">
<g opacity="0.8">
<path d="M1598.5 456.5L-491 0V535H1598.5V456.5Z" fill="url(#paint0_radial)"/>
<path d="M1598.5 456.5L-491 0V535H1598.5V456.5Z" fill="url(#paint1_angular)"/>
<path d="M1598.5 456.5L-491 0V535H1598.5V456.5Z" fill="url(#paint2_radial)"/>
<path d="M1598.5 456.5L-491 0V535H1598.5V456.5Z" fill="url(#paint3_radial)"/>
<path d="M1598.5 456.5L-491 0V535H1598.5V456.5Z" fill="url(#paint4_radial)"/>
<path d="M1598.5 456.5L-491 0V535H1598.5V456.5Z" fill="url(#paint5_radial)" fill-opacity="0.1"/>
<path d="M1598.5 456.5L-491 0V535H1598.5V456.5Z" fill="url(#paint6_radial)"/>
<path d="M1598.5 456.5L-491 0V535H1598.5V456.5Z" fill="url(#paint7_radial)"/>
<path d="M1598.5 456.5L-491 0V535H1598.5V456.5Z" fill="url(#paint8_radial)"/>
<path d="M1598.5 456.5L-491 0V535H1598.5V456.5Z" fill="url(#paint9_radial)"/>
<path d="M1598.5 456.5L-491 0V535H1598.5V456.5Z" fill="url(#paint10_radial)" style="mix-blend-mode:hard-light"/>
</g>
<defs>
<radialGradient id="paint0_radial" cx="0" cy="0" r="1" gradientUnits="userSpaceOnUse" gradientTransform="translate(-44.9527 361.517) rotate(-70.1596) scale(354.583 783.03)">
<stop stop-color="#A960EE"/>
<stop offset="1" stop-color="#C788CB"/>
</radialGradient>
<radialGradient id="paint1_angular" cx="0" cy="0" r="1" gradientUnits="userSpaceOnUse" gradientTransform="translate(-29.0773 318.985) rotate(83.0619) scale(105.985 225.777)">
<stop offset="0.495182" stop-color="#90E0FF"/>
<stop offset="1" stop-color="#A960EE" stop-opacity="0"/>
</radialGradient>
<radialGradient id="paint2_radial" cx="0" cy="0" r="1" gradientUnits="userSpaceOnUse" gradientTransform="translate(-379.36 324.582) rotate(-108.981) scale(343.244 552.881)">
<stop offset="0.411761" stop-color="#FFCB57"/>
<stop offset="0.719902" stop-color="#B778E1" stop-opacity="0"/>
</radialGradient>
<radialGradient id="paint3_radial" cx="0" cy="0" r="1" gradientUnits="userSpaceOnUse" gradientTransform="translate(-491) rotate(13.2261) scale(572.357 339.043)">
<stop offset="0.192069" stop-color="#FF333D"/>
<stop offset="0.545432" stop-color="#B778E0" stop-opacity="0"/>
</radialGradient>
<radialGradient id="paint4_radial" cx="0" cy="0" r="1" gradientUnits="userSpaceOnUse" gradientTransform="translate(466.645 439.864) rotate(10.224) scale(433.761 189.829)">
<stop offset="0.317029" stop-color="#FFCB57"/>
<stop offset="1" stop-color="#EE755C" stop-opacity="0"/>
</radialGradient>
<radialGradient id="paint5_radial" cx="0" cy="0" r="1" gradientUnits="userSpaceOnUse" gradientTransform="translate(-87.9699 228.886) rotate(-77.977) scale(223.72 598.265)">
<stop offset="0.507408" stop-color="#90E0FF"/>
<stop offset="1" stop-color="#A960EE" stop-opacity="0"/>
</radialGradient>
<radialGradient id="paint6_radial" cx="0" cy="0" r="1" gradientUnits="userSpaceOnUse" gradientTransform="translate(-331.157 80.3537) rotate(161.493) scale(240.086 130.408)">
<stop offset="0.259592" stop-color="#A960EE"/>
<stop offset="1" stop-color="#FF333D" stop-opacity="0"/>
</radialGradient>
<radialGradient id="paint7_radial" cx="0" cy="0" r="1" gradientUnits="userSpaceOnUse" gradientTransform="translate(-81.6682 230.693) rotate(-80.2593) scale(263.523 421.089)">
<stop stop-color="#B8EBFF"/>
<stop offset="0.605789" stop-color="#90E0FF"/>
<stop offset="0.832381" stop-color="#A960EE" stop-opacity="0"/>
</radialGradient>
<radialGradient id="paint8_radial" cx="0" cy="0" r="1" gradientUnits="userSpaceOnUse" gradientTransform="translate(-353.449 175.223) rotate(-3.51014) scale(279.42 123.37)">
<stop stop-color="#AFE9FF"/>
<stop offset="0.414475" stop-color="#90E0FF"/>
<stop offset="1" stop-color="#90E0FF" stop-opacity="0"/>
</radialGradient>
<radialGradient id="paint9_radial" cx="0" cy="0" r="1" gradientUnits="userSpaceOnUse" gradientTransform="translate(692.997 267.5) rotate(-173.282) scale(735.605 179.465)">
<stop offset="0.447917" stop-color="#FF333D"/>
<stop offset="0.831859" stop-color="#A960EE" stop-opacity="0"/>
</radialGradient>
<radialGradient id="paint10_radial" cx="0" cy="0" r="1" gradientUnits="userSpaceOnUse" gradientTransform="translate(698.63 448.818) rotate(-65.686) scale(391.79 1750.92)">
<stop offset="0.166667" stop-color="#EE755C"/>
<stop offset="0.483429" stop-color="#90E0FF" stop-opacity="0"/>
</radialGradient>
</defs>
</svg>
