<svg width="289" height="627" viewBox="0 0 289 627" fill="none" xmlns="http://www.w3.org/2000/svg">
<path d="M226.395 174.519L243.215 157.218L260.768 167.811L239.858 189.495L226.395 174.519Z" fill="#FFC9A6"/>
<path d="M273.637 138.39C279.407 147.854 276.225 160.041 266.503 165.653C256.782 171.265 244.194 168.11 238.424 158.646C232.654 149.182 235.836 136.995 245.558 131.383C255.279 125.804 267.832 128.959 273.637 138.39Z" fill="#FFC9A6"/>
<path d="M283.813 109.732C285.526 111.359 285.561 114.015 283.917 115.676L246.607 153.034C244.963 154.694 242.201 154.727 240.487 153.1C238.774 151.506 238.739 148.816 240.382 147.156L277.693 109.798C279.337 108.138 282.099 108.104 283.813 109.732Z" fill="black"/>
<path d="M114.777 149.314L190.867 210.648L232.2 164.424L249.929 185.41L201.113 251.791C196.987 256.474 189.643 256.905 184.958 252.721L113.973 213.105L114.777 149.314Z" fill="#4F4D4B"/>
<path d="M204.47 435.427C204.47 435.427 81.2426 520.47 31.6928 572.805L16.6564 559.522L58.3733 511.837C58.3733 511.837 77.326 469.796 117.609 455.949L173.488 391.693L204.47 435.427Z" fill="#F2C09E"/>
<path d="M16.6913 550.191C18.3348 549.327 20.188 550.091 20.3629 551.751C20.7126 554.972 22.2513 559.854 27.7063 563.706C33.3711 567.724 38.1268 566.495 40.8543 565.067C42.288 564.304 43.9664 564.702 44.4909 566.03L61.5554 608.403C62.6044 610.96 62.4296 613.981 61.1358 616.738C59.9119 619.328 56.45 620.258 54.5268 618.498L1.41023 569.882C-0.687852 567.956 -0.408167 564.536 2.00463 562.378L13.8589 551.751C14.0687 551.585 14.2785 551.419 14.5233 551.286L16.6913 550.191Z" fill="#1F252A"/>
<path d="M209.156 394.582C209.156 394.582 215.135 539.133 233.424 607.307L213.422 611.79L194.889 552.349C194.889 552.349 168.628 514.028 178.873 474.512L153.661 394.682L209.156 394.582Z" fill="#FCC9A7"/>
<path d="M205.309 603.92C205.449 602.16 207.163 601.097 208.701 601.894C211.708 603.422 216.849 604.916 223.248 602.724C229.927 600.466 231.5 596.05 231.745 593.094C231.885 591.533 233.144 590.438 234.612 590.77L281.19 600.831C284.022 601.429 286.575 603.222 288.254 605.779C289.862 608.17 288.743 611.425 286.12 611.989L214.051 626.899C211.219 627.497 208.386 625.371 207.827 622.25L205.134 607.008C205.099 606.742 205.064 606.51 205.099 606.244L205.309 603.92Z" fill="#1F252A"/>
<path d="M97.223 372.765L94.1108 464.815L234.473 471.457C234.473 471.457 218.982 418.491 206.568 366.555L97.223 372.765Z" fill="#F7ECE7"/>
<path d="M122.155 131.715C118.064 131.25 113.938 129.158 110.895 127.232C107.888 125.339 106.314 121.952 106.734 118.532L114.987 56.2352L143.695 59.5227L135.583 121.055C134.674 128.095 128.729 132.445 122.155 131.715Z" fill="#FCC9A7"/>
<path d="M137.856 103.755L127.925 86.5201C127.925 86.5201 118.449 103.921 136.807 111.625L137.856 103.755Z" fill="#F2C09E"/>
<path d="M169.117 62.4116C166.774 80.9743 149.011 94.224 129.463 91.9659C109.916 89.741 95.9641 72.8718 98.3419 54.309C100.685 35.7462 118.448 22.4966 137.996 24.7547C157.543 26.9796 171.46 43.8488 169.117 62.4116Z" fill="#FCC9A7"/>
<path d="M140.374 104.22C131.107 103.157 124.463 95.154 125.582 86.3209L128.519 63.3083L169.117 62.3785L166.25 84.9262C164.711 97.0468 153.137 105.681 140.374 104.22Z" fill="#FCC9A7"/>
<path d="M167.124 69.8169L173.488 81.5058C174.363 83.3986 172.649 85.391 170.411 85.1253L161.25 85.723L167.124 69.8169Z" fill="#FCC9A7"/>
<path d="M132.925 73.3366L140.723 72.7389L143.73 59.5225C143.73 59.5225 175.691 64.902 180.482 50.5234C180.482 50.5234 162.019 2.1738 117.33 21.0354C84.1798 35.0156 93.6911 69.6174 104.601 82.4686C108.238 86.7523 109.951 92.2978 109.462 97.777C109.392 98.4411 109.322 99.1385 109.217 99.8691L122.26 71.7095L132.925 73.3366Z" fill="#FF7C60"/>
<path d="M122.575 59.2568C127.54 57.2312 133.31 59.4228 135.443 64.1714C137.576 68.8868 135.268 74.366 130.268 76.3916C125.302 78.4172 119.532 76.2256 117.399 71.477C115.266 66.7284 117.574 61.2825 122.575 59.2568Z" fill="#FCC9A7"/>
<path d="M111.805 31.2301C111.805 31.2301 103.832 -9.1166 67.7797 1.90816C28.056 14.062 45.61 57.5965 44.0364 67.127C42.2181 78.2846 36.0636 89.907 19.0342 92.0987C19.0342 92.0987 66.6258 102.26 69.3183 70.6137C71.5912 43.9816 84.8792 33.156 100.02 43.417L111.805 31.2301Z" fill="#FF7C60"/>
<path d="M106.769 118.531C106.769 118.531 98.5518 115.51 94.3906 157.882C90.2294 200.254 87.4667 397.438 87.4667 397.438L217.024 376.484C217.024 376.484 193.525 200.155 135.513 121.022L106.769 118.531Z" fill="#383635"/>
<path d="M108.413 400.261C109.182 411.319 119.008 419.687 130.373 418.956C141.737 418.226 150.374 408.662 149.605 397.604C148.836 386.546 139.01 378.178 127.645 378.909C116.28 379.639 107.643 389.203 108.413 400.261Z" fill="#FCC9A7"/>
<path d="M119.7 388.474H140.926V350.584H119.7V388.474Z" fill="#FCC9A7"/>
<path d="M144.22 184.115V369.245H115.022L104.706 175.116C104.217 166.35 108.098 157.716 115.406 152.602C123.729 146.757 134.954 146.259 142.821 174.153C143.766 177.374 144.22 180.728 144.22 184.115Z" fill="#4F4D4B"/>
<path d="M144.22 369.245V357.49H114.392L115.057 369.245H144.22Z" fill="white"/>
</svg>
