<svg width="208" height="617" viewBox="0 0 208 617" fill="none" xmlns="http://www.w3.org/2000/svg">
<path d="M168.423 616.219C182.102 616.434 196.916 616.38 208 608.356C201.782 604.91 194.375 604.479 187.292 604.102C147.715 602.11 108.137 600.441 68.5599 600.764C59.855 600.817 50.988 601.033 42.6075 603.402C39.0391 604.425 35.6329 605.825 32.2267 607.226C29.307 608.41 25.1437 610.726 27.0361 614.603C28.55 617.619 32.1725 616.919 34.984 616.865C45.5812 616.649 56.2326 616.38 66.8298 616.219C88.5109 615.896 110.138 615.734 131.819 615.842C143.984 615.895 156.203 616.003 168.423 616.219Z" fill="url(#paint0_linear)"/>
<path d="M168.423 616.219C182.102 616.434 196.916 616.38 208 608.356C201.782 604.91 194.375 604.479 187.292 604.102C147.715 602.11 108.137 600.441 68.5599 600.764C59.855 600.817 50.988 601.033 42.6075 603.402C39.0391 604.425 35.6329 605.825 32.2267 607.226C29.307 608.41 25.1437 610.726 27.0361 614.603C28.55 617.619 32.1725 616.919 34.984 616.865C45.5812 616.649 56.2326 616.38 66.8298 616.219C88.5109 615.896 110.138 615.734 131.819 615.842C143.984 615.895 156.203 616.003 168.423 616.219Z" fill="url(#paint1_linear)"/>
<path d="M46.3929 265.063C50.1236 276.21 50.3397 288.649 46.9335 299.85C46.6091 300.927 46.2307 302.058 46.3929 303.135C46.6633 305.289 48.6097 306.743 50.448 307.766C59.7476 312.774 70.6152 313.258 81.0502 313.312C97.8652 313.366 114.68 312.397 131.387 310.404C133.279 308.089 132.036 304.535 131.117 301.573C128.467 292.688 130.468 283.102 131.387 273.84C131.495 272.763 131.549 271.632 131.117 270.717C130.684 269.855 129.873 269.317 129.062 268.778C117.275 261.401 103.542 257.416 89.8091 257.416C84.2402 257.416 78.6712 258.062 73.1023 258.924C64.073 260.378 55.1519 262.424 46.3929 265.063Z" fill="#ECCDAD"/>
<path d="M17.3042 117.622C19.4128 121.337 21.4674 125.053 23.0895 129.038C23.7383 130.707 26.0631 129.63 25.5765 128.015C24.387 123.922 23.1975 119.776 21.6837 115.791C20.5482 112.883 15.7903 115.037 17.3042 117.622Z" fill="#666666"/>
<path d="M2.70594 155.263C4.54424 154.886 6.16633 153.917 7.84242 153.109C9.57258 152.247 11.7352 151.493 13.1409 150.093C13.8438 149.393 13.7898 147.832 12.4921 147.778C10.5998 147.724 8.7615 148.532 6.9232 149.124C4.9227 149.77 2.81409 150.255 1.02987 151.386C-0.862497 152.516 0.543245 155.747 2.70594 155.263Z" fill="#666666"/>
<path d="M0.975727 134.261C2.97622 135.5 5.19312 136.254 7.35582 137.062C9.30225 137.762 11.2486 138.623 13.3572 138.569C14.3304 138.569 14.8171 137.169 14.2223 136.469C13.0328 135.069 11.4108 134.315 9.78876 133.454C7.68012 132.323 5.51742 131.03 3.19251 130.33C0.921679 129.684 -1.34918 132.807 0.975727 134.261Z" fill="#666666"/>
<path d="M84.8343 123.761C88.0243 124.515 91.2683 124.676 94.6205 124.084C112.949 120.961 119.005 98.5051 119.654 84.6656C120.303 71.0416 119.654 56.9868 113.49 44.5474C108.678 34.9083 99.9192 29.1464 88.1325 28.7694C85.6995 28.7156 83.3204 29.0386 80.9415 29.5233C52.7723 35.1775 53.2049 72.8725 56.7193 93.2278C58.828 105.129 70.5064 120.368 84.8343 123.761Z" fill="#ECCDAD"/>
<path d="M79.1575 591.824C71.6421 591.232 64.0726 591.555 56.6113 592.794C50.8801 597.048 44.6084 600.548 37.9581 603.241C36.0116 603.994 34.011 604.748 32.6053 606.256C31.1995 607.764 30.6048 610.295 31.9565 611.91C33.0919 613.311 35.1464 613.472 36.9847 613.472C50.8801 613.634 64.7755 612.449 78.4546 609.972C79.2656 609.81 80.1306 609.649 80.7253 609.056C81.2119 608.572 81.4282 607.926 81.5904 607.279C82.9962 602.056 82.0771 596.294 79.1575 591.824Z" fill="#333333"/>
<path d="M143.335 587.086C136.577 587.84 129.98 589.455 123.6 591.825C119.275 596.563 114.355 600.764 109.002 604.264C107.434 605.287 105.758 606.31 104.785 607.872C103.812 609.434 103.758 611.803 105.163 612.934C106.407 613.957 108.245 613.742 109.867 613.419C122.141 611.157 134.198 607.657 145.822 603.133C146.525 602.864 147.282 602.541 147.66 601.948C147.985 601.464 148.093 600.818 148.093 600.225C148.472 595.487 146.687 590.586 143.335 587.086Z" fill="#333333"/>
<path d="M120.087 49.2325C115.112 36.0931 101.325 27.3694 87.2677 26.454C83.6452 26.2386 79.9685 26.454 76.5081 27.4771C66.9382 30.2773 59.8555 38.8395 56.3411 48.1555C52.8267 57.4716 52.286 67.5953 51.7994 77.5576C51.7454 78.9577 51.6912 80.3578 52.34 81.5963C52.9888 82.8349 54.6109 83.6426 55.8004 82.9964C57.3683 73.7881 58.9903 64.4182 63.3698 56.1791C67.7493 47.9401 75.4809 40.8858 84.7805 39.7011C93.3231 38.6241 101.92 42.8244 107.759 49.1787C113.598 55.5329 116.086 62.318 116.788 70.3955C117.221 75.4574 119.6 81.8656 121.925 73.0342C123.763 65.8183 122.682 56.0714 120.087 49.2325Z" fill="#FBAE17"/>
<path d="M105.434 26.4002C102.569 28.0157 99.1624 28.1772 95.8643 28.1234C89.7006 28.0157 83.5909 27.4772 77.5354 26.4002C74.3454 25.8617 71.0474 25.1078 68.344 23.3846C65.5865 21.6614 63.4238 18.6996 63.4238 15.4686C63.4238 12.453 65.2621 9.70669 67.4789 7.60654C73.21 2.11385 81.4824 -0.2017 89.4303 0.0136995C94.0801 0.121399 98.8381 1.09071 102.839 3.51395C106.84 5.9372 110.03 9.86824 110.787 14.4455C111.49 19.0227 109.489 24.0846 105.434 26.4002Z" fill="#FBAE17"/>
<path d="M137.28 457.415C135.442 416.543 139.335 374.864 138.956 333.776C140.2 319.506 138.199 305.02 133.171 291.612C132.847 290.804 132.522 289.942 131.873 289.296C129.927 287.304 126.629 288.381 124.088 289.404C99.541 299.474 70.5608 297.104 48.1769 282.888C43.7433 289.565 42.4998 297.804 41.4184 305.774C39.6342 318.644 37.7419 331.46 37.2553 344.331V344.384C37.1472 347.131 37.093 349.931 37.147 352.731C37.4715 368.832 40.5534 384.664 42.9864 400.496C44.5544 410.835 45.9601 421.228 46.1223 431.729C46.2304 440.291 45.0409 448.153 46.9333 456.554C51.6912 477.232 51.6912 499.742 53.6917 520.851C55.8544 543.468 57.9631 566.085 59.6933 588.755C59.7473 589.671 59.8555 590.586 59.9096 591.448C61.045 591.771 78.5628 595.756 78.5628 591.233C79.9685 547.291 81.3743 503.296 82.78 459.354C83.3748 440.83 84.0236 422.09 88.7275 404.481C90.6739 404.696 92.6204 404.858 94.5669 405.073C105.218 463.231 115.923 521.443 126.575 579.601C127.494 584.717 128.629 590.263 132.036 593.548C135.442 596.833 141.768 595.918 142.741 590.802C139.659 546.322 139.281 501.896 137.28 457.415Z" fill="#4D4D4D"/>
<path d="M62.5041 123.33C65.4778 124.946 68.6138 126.346 72.02 127.423C85.3206 131.623 101.487 129.685 112.517 122.576C121.438 124.892 127.764 131.031 131.008 137.762C134.252 144.547 134.847 151.871 135.441 159.087C138.036 192.851 140.632 226.668 143.227 260.432C143.335 262.102 143.443 263.879 142.524 265.386C140.578 268.456 135.279 269.102 130.845 269.264C100.784 270.556 70.5602 270.018 40.5527 267.702C39.3091 267.594 38.0115 267.487 36.9842 267.002C34.6593 265.871 34.3349 263.448 34.2808 261.348C33.578 229.253 35.6867 197.105 40.6609 165.279C42.4992 153.594 44.77 141.747 51.204 131.139C52.5016 128.985 54.1238 126.777 56.719 125.43C59.2602 124.084 59.9629 121.93 62.5041 123.33Z" fill="#AFD9C4"/>
<path d="M93.7018 146.485C72.5074 145.301 51.1507 144.116 30.1725 147.239C28.9831 169.802 29.1451 192.473 30.7131 215.036C62.5048 212.021 95.9186 212.075 127.818 212.129C127.818 191.881 126.25 168.564 126.25 148.37C115.383 147.67 104.569 147.078 93.7018 146.485Z" fill="#B3B3B3"/>
<path d="M34.1729 226.13C32.2805 229.199 30.3881 231.838 28.5498 233.13C26.1708 234.746 22.6564 234.315 20.7641 232.161C15.7358 226.453 24.8192 208.467 27.09 202.651C31.2532 191.935 36.2274 181.596 41.2016 171.257C42.9858 167.595 45.8515 163.287 49.9065 163.933C50.9338 164.095 51.853 164.579 52.664 165.226C57.3138 168.887 56.7731 176.049 55.2592 181.757C52.5017 192.312 48.0683 202.436 42.1749 211.644C40.1204 214.929 37.2007 221.122 34.1729 226.13Z" fill="#ECCDAD"/>
<path d="M173.992 181.703C173.938 180.357 173.451 179.065 172.91 177.826C166.963 163.879 157.88 151.332 146.526 141.208C142.092 137.277 135.982 133.508 130.576 135.931C129.656 136.362 128.791 136.954 128.143 137.762C125.71 141.047 128.197 145.57 130.684 148.801C139.01 159.786 147.445 170.772 156.907 180.734C155.933 181.542 155.23 182.727 154.582 183.804C147.12 196.566 137.55 208.09 131.657 221.606C130.684 223.868 129.819 226.237 130.143 228.66C130.522 231.084 132.522 233.399 134.955 233.292C136.956 233.184 138.47 231.568 139.821 230.061C145.769 223.329 151.662 216.598 157.609 209.921C163.178 203.62 168.855 196.943 171.018 188.865C172.424 186.604 174.1 184.396 173.992 181.703Z" fill="#ECCDAD"/>
<path d="M136.685 68.3492C135.279 65.8183 133.711 63.2335 131.332 61.5103C130.683 61.0256 129.926 60.6487 129.169 60.3256C129.98 50.2556 124.736 40.3472 119.654 31.3543C117.761 28.0156 115.815 24.5692 113.057 21.8767C107.002 15.8455 97.8644 14.0146 89.3218 13.5838C78.1838 13.0453 66.5592 14.607 57.2596 20.692C52.6098 23.7614 48.5548 28.1233 47.0409 33.4545C46.1758 36.5777 46.1758 39.8626 46.1758 43.0397C46.1758 48.4786 46.2299 53.8636 46.2299 59.3024C44.0672 61.0256 42.5532 63.395 41.2015 65.8721C38.7144 70.5032 36.6059 75.5112 36.3896 80.7347C36.1733 85.9581 38.1198 91.5585 42.3371 94.628C44.0672 95.8665 46.0677 96.6743 48.0682 97.3743C50.9879 98.3436 54.394 98.936 56.9352 97.2128C60.0711 95.0588 60.1794 90.5892 59.909 86.8197C59.5305 81.3809 58.9898 75.942 58.9898 70.4494C58.9898 68.1338 59.098 65.7644 58.5573 63.5027C58.0167 61.241 56.773 59.0332 54.7184 57.9562C53.2586 57.2023 51.6366 57.0946 50.0146 57.4177C49.6902 52.5173 50.0687 47.617 51.7448 43.0397C55.2592 33.4544 64.5047 26.4539 74.5613 24.4615C84.6178 22.5229 95.3232 25.3231 103.812 31.085C113.76 37.8163 120.843 48.6401 123.168 60.3794C123.168 60.3794 123.114 60.3794 123.06 60.4333C121.005 61.5103 119.762 63.7181 119.221 65.9798C118.68 68.2415 118.788 70.6109 118.788 72.9264C118.788 78.3653 118.248 83.858 117.869 89.2968C117.599 93.0663 117.707 97.5359 120.843 99.6899C123.384 101.413 126.791 100.821 129.71 99.8514C131.711 99.2052 133.765 98.3975 135.441 97.1051C139.713 93.9818 141.605 88.4352 141.389 83.2118C141.28 77.9345 139.172 72.9265 136.685 68.3492Z" fill="#1A5E73"/>
<defs>
<linearGradient id="paint0_linear" x1="26.5111" y1="608.872" x2="207.987" y2="608.872" gradientUnits="userSpaceOnUse">
<stop stop-color="#4D4D4D"/>
<stop offset="1"/>
</linearGradient>
<linearGradient id="paint1_linear" x1="26.5111" y1="608.872" x2="207.987" y2="608.872" gradientUnits="userSpaceOnUse">
<stop/>
<stop offset="1"/>
</linearGradient>
</defs>
</svg>
