<svg width="109" height="33" viewBox="0 0 109 33" fill="none" xmlns="http://www.w3.org/2000/svg">
<path d="M0 16.5C0 7.3873 7.3873 0 16.5 0H91.6213C100.734 0 108.121 7.3873 108.121 16.5C108.121 25.6127 100.734 33 91.6213 33H16.5C7.3873 33 0 25.6127 0 16.5Z" fill="#11253E"/>
<path d="M15.4302 18.93C15.4302 19.34 15.5002 19.69 15.6402 19.98C15.7802 20.27 15.9752 20.51 16.2252 20.7C16.4752 20.88 16.7602 21.015 17.0802 21.105C17.4102 21.185 17.7652 21.225 18.1452 21.225C18.5552 21.225 18.9052 21.18 19.1952 21.09C19.4852 20.99 19.7202 20.865 19.9002 20.715C20.0802 20.565 20.2102 20.395 20.2902 20.205C20.3702 20.005 20.4102 19.805 20.4102 19.605C20.4102 19.195 20.3152 18.895 20.1252 18.705C19.9452 18.505 19.7452 18.365 19.5252 18.285C19.1452 18.145 18.7002 18.015 18.1902 17.895C17.6902 17.765 17.0702 17.6 16.3302 17.4C15.8702 17.28 15.4852 17.125 15.1752 16.935C14.8752 16.735 14.6352 16.515 14.4552 16.275C14.2752 16.035 14.1452 15.78 14.0652 15.51C13.9952 15.24 13.9602 14.965 13.9602 14.685C13.9602 14.145 14.0702 13.68 14.2902 13.29C14.5202 12.89 14.8202 12.56 15.1902 12.3C15.5602 12.04 15.9802 11.85 16.4502 11.73C16.9202 11.6 17.3952 11.535 17.8752 11.535C18.4352 11.535 18.9602 11.61 19.4502 11.76C19.9502 11.9 20.3852 12.115 20.7552 12.405C21.1352 12.695 21.4352 13.055 21.6552 13.485C21.8752 13.905 21.9852 14.395 21.9852 14.955H20.1102C20.0602 14.265 19.8252 13.78 19.4052 13.5C18.9852 13.21 18.4502 13.065 17.8002 13.065C17.5802 13.065 17.3552 13.09 17.1252 13.14C16.8952 13.18 16.6852 13.255 16.4952 13.365C16.3052 13.465 16.1452 13.605 16.0152 13.785C15.8952 13.965 15.8352 14.19 15.8352 14.46C15.8352 14.84 15.9502 15.14 16.1802 15.36C16.4202 15.57 16.7302 15.73 17.1102 15.84C17.1502 15.85 17.3052 15.895 17.5752 15.975C17.8552 16.045 18.1652 16.125 18.5052 16.215C18.8452 16.305 19.1752 16.395 19.4952 16.485C19.8252 16.565 20.0602 16.625 20.2002 16.665C20.5502 16.775 20.8552 16.925 21.1152 17.115C21.3752 17.305 21.5902 17.525 21.7602 17.775C21.9402 18.015 22.0702 18.275 22.1502 18.555C22.2402 18.835 22.2852 19.115 22.2852 19.395C22.2852 19.995 22.1602 20.51 21.9102 20.94C21.6702 21.36 21.3502 21.705 20.9502 21.975C20.5502 22.245 20.0952 22.44 19.5852 22.56C19.0752 22.69 18.5552 22.755 18.0252 22.755C17.4152 22.755 16.8402 22.68 16.3002 22.53C15.7602 22.38 15.2902 22.15 14.8902 21.84C14.4902 21.53 14.1702 21.135 13.9302 20.655C13.6902 20.165 13.5652 19.59 13.5552 18.93H15.4302ZM23.0567 14.745H24.3467V12.42H26.0567V14.745H27.6017V16.02H26.0567V20.16C26.0567 20.34 26.0617 20.495 26.0717 20.625C26.0917 20.755 26.1267 20.865 26.1767 20.955C26.2367 21.045 26.3217 21.115 26.4317 21.165C26.5417 21.205 26.6917 21.225 26.8817 21.225C27.0017 21.225 27.1217 21.225 27.2417 21.225C27.3617 21.215 27.4817 21.195 27.6017 21.165V22.485C27.4117 22.505 27.2267 22.525 27.0467 22.545C26.8667 22.565 26.6817 22.575 26.4917 22.575C26.0417 22.575 25.6767 22.535 25.3967 22.455C25.1267 22.365 24.9117 22.24 24.7517 22.08C24.6017 21.91 24.4967 21.7 24.4367 21.45C24.3867 21.2 24.3567 20.915 24.3467 20.595V16.02H23.0567V14.745ZM35.4768 20.775C35.4768 20.985 35.5018 21.135 35.5518 21.225C35.6118 21.315 35.7218 21.36 35.8818 21.36C35.9318 21.36 35.9918 21.36 36.0618 21.36C36.1318 21.36 36.2118 21.35 36.3018 21.33V22.515C36.2418 22.535 36.1618 22.555 36.0618 22.575C35.9718 22.605 35.8768 22.63 35.7768 22.65C35.6768 22.67 35.5768 22.685 35.4768 22.695C35.3768 22.705 35.2918 22.71 35.2218 22.71C34.8718 22.71 34.5818 22.64 34.3518 22.5C34.1218 22.36 33.9718 22.115 33.9018 21.765C33.5618 22.095 33.1418 22.335 32.6418 22.485C32.1518 22.635 31.6768 22.71 31.2168 22.71C30.8668 22.71 30.5318 22.66 30.2118 22.56C29.8918 22.47 29.6068 22.335 29.3568 22.155C29.1168 21.965 28.9218 21.73 28.7718 21.45C28.6318 21.16 28.5618 20.825 28.5618 20.445C28.5618 19.965 28.6468 19.575 28.8168 19.275C28.9968 18.975 29.2268 18.74 29.5068 18.57C29.7968 18.4 30.1168 18.28 30.4668 18.21C30.8268 18.13 31.1868 18.07 31.5468 18.03C31.8568 17.97 32.1518 17.93 32.4318 17.91C32.7118 17.88 32.9568 17.835 33.1668 17.775C33.3868 17.715 33.5568 17.625 33.6768 17.505C33.8068 17.375 33.8718 17.185 33.8718 16.935C33.8718 16.715 33.8168 16.535 33.7068 16.395C33.6068 16.255 33.4768 16.15 33.3168 16.08C33.1668 16 32.9968 15.95 32.8068 15.93C32.6168 15.9 32.4368 15.885 32.2668 15.885C31.7868 15.885 31.3918 15.985 31.0818 16.185C30.7718 16.385 30.5968 16.695 30.5568 17.115H28.8468C28.8768 16.615 28.9968 16.2 29.2068 15.87C29.4168 15.54 29.6818 15.275 30.0018 15.075C30.3318 14.875 30.7018 14.735 31.1118 14.655C31.5218 14.575 31.9418 14.535 32.3718 14.535C32.7518 14.535 33.1268 14.575 33.4968 14.655C33.8668 14.735 34.1968 14.865 34.4868 15.045C34.7868 15.225 35.0268 15.46 35.2068 15.75C35.3868 16.03 35.4768 16.375 35.4768 16.785V20.775ZM33.7668 18.615C33.5068 18.785 33.1868 18.89 32.8068 18.93C32.4268 18.96 32.0468 19.01 31.6668 19.08C31.4868 19.11 31.3118 19.155 31.1418 19.215C30.9718 19.265 30.8218 19.34 30.6918 19.44C30.5618 19.53 30.4568 19.655 30.3768 19.815C30.3068 19.965 30.2718 20.15 30.2718 20.37C30.2718 20.56 30.3268 20.72 30.4368 20.85C30.5468 20.98 30.6768 21.085 30.8268 21.165C30.9868 21.235 31.1568 21.285 31.3368 21.315C31.5268 21.345 31.6968 21.36 31.8468 21.36C32.0368 21.36 32.2418 21.335 32.4618 21.285C32.6818 21.235 32.8868 21.15 33.0768 21.03C33.2768 20.91 33.4418 20.76 33.5718 20.58C33.7018 20.39 33.7668 20.16 33.7668 19.89V18.615ZM37.4668 14.745H39.0718V16.245H39.1018C39.1518 16.035 39.2468 15.83 39.3868 15.63C39.5368 15.43 39.7118 15.25 39.9118 15.09C40.1218 14.92 40.3518 14.785 40.6018 14.685C40.8518 14.585 41.1068 14.535 41.3668 14.535C41.5668 14.535 41.7018 14.54 41.7718 14.55C41.8518 14.56 41.9318 14.57 42.0118 14.58V16.23C41.8918 16.21 41.7668 16.195 41.6368 16.185C41.5168 16.165 41.3968 16.155 41.2768 16.155C40.9868 16.155 40.7118 16.215 40.4518 16.335C40.2018 16.445 39.9818 16.615 39.7918 16.845C39.6018 17.065 39.4518 17.34 39.3418 17.67C39.2318 18 39.1768 18.38 39.1768 18.81V22.5H37.4668V14.745ZM42.1102 14.745H43.4002V12.42H45.1102V14.745H46.6552V16.02H45.1102V20.16C45.1102 20.34 45.1152 20.495 45.1252 20.625C45.1452 20.755 45.1802 20.865 45.2302 20.955C45.2902 21.045 45.3752 21.115 45.4852 21.165C45.5952 21.205 45.7452 21.225 45.9352 21.225C46.0552 21.225 46.1752 21.225 46.2952 21.225C46.4152 21.215 46.5352 21.195 46.6552 21.165V22.485C46.4652 22.505 46.2802 22.525 46.1002 22.545C45.9202 22.565 45.7352 22.575 45.5452 22.575C45.0952 22.575 44.7302 22.535 44.4502 22.455C44.1802 22.365 43.9652 22.24 43.8052 22.08C43.6552 21.91 43.5502 21.7 43.4902 21.45C43.4402 21.2 43.4102 20.915 43.4002 20.595V16.02H42.1102V14.745ZM52.3602 14.745H53.9802V15.885L54.0102 15.915C54.2702 15.485 54.6102 15.15 55.0302 14.91C55.4502 14.66 55.9152 14.535 56.4252 14.535C57.2752 14.535 57.9452 14.755 58.4352 15.195C58.9252 15.635 59.1702 16.295 59.1702 17.175V22.5H57.4602V17.625C57.4402 17.015 57.3102 16.575 57.0702 16.305C56.8302 16.025 56.4552 15.885 55.9452 15.885C55.6552 15.885 55.3952 15.94 55.1652 16.05C54.9352 16.15 54.7402 16.295 54.5802 16.485C54.4202 16.665 54.2952 16.88 54.2052 17.13C54.1152 17.38 54.0702 17.645 54.0702 17.925V22.5H52.3602V14.745ZM64.6784 22.71C64.0584 22.71 63.5034 22.61 63.0134 22.41C62.5334 22.2 62.1234 21.915 61.7834 21.555C61.4534 21.195 61.1984 20.765 61.0184 20.265C60.8484 19.765 60.7634 19.215 60.7634 18.615C60.7634 18.025 60.8484 17.48 61.0184 16.98C61.1984 16.48 61.4534 16.05 61.7834 15.69C62.1234 15.33 62.5334 15.05 63.0134 14.85C63.5034 14.64 64.0584 14.535 64.6784 14.535C65.2984 14.535 65.8484 14.64 66.3284 14.85C66.8184 15.05 67.2284 15.33 67.5584 15.69C67.8984 16.05 68.1534 16.48 68.3234 16.98C68.5034 17.48 68.5934 18.025 68.5934 18.615C68.5934 19.215 68.5034 19.765 68.3234 20.265C68.1534 20.765 67.8984 21.195 67.5584 21.555C67.2284 21.915 66.8184 22.2 66.3284 22.41C65.8484 22.61 65.2984 22.71 64.6784 22.71ZM64.6784 21.36C65.0584 21.36 65.3884 21.28 65.6684 21.12C65.9484 20.96 66.1784 20.75 66.3584 20.49C66.5384 20.23 66.6684 19.94 66.7484 19.62C66.8384 19.29 66.8834 18.955 66.8834 18.615C66.8834 18.285 66.8384 17.955 66.7484 17.625C66.6684 17.295 66.5384 17.005 66.3584 16.755C66.1784 16.495 65.9484 16.285 65.6684 16.125C65.3884 15.965 65.0584 15.885 64.6784 15.885C64.2984 15.885 63.9684 15.965 63.6884 16.125C63.4084 16.285 63.1784 16.495 62.9984 16.755C62.8184 17.005 62.6834 17.295 62.5934 17.625C62.5134 17.955 62.4734 18.285 62.4734 18.615C62.4734 18.955 62.5134 19.29 62.5934 19.62C62.6834 19.94 62.8184 20.23 62.9984 20.49C63.1784 20.75 63.4084 20.96 63.6884 21.12C63.9684 21.28 64.2984 21.36 64.6784 21.36ZM69.46 14.745H71.275L72.79 20.535H72.82L74.275 14.745H76L77.395 20.535H77.425L79 14.745H80.74L78.31 22.5H76.555L75.115 16.74H75.085L73.66 22.5H71.86L69.46 14.745Z" fill="white"/>
<path fill-rule="evenodd" clip-rule="evenodd" d="M92.2929 16.5L89 13.2071L90.4142 11.7929L95.1213 16.5L90.4142 21.2071L89 19.7929L92.2929 16.5Z" fill="white"/>
</svg>
