<svg width="100" height="37" viewBox="0 0 100 37" fill="none" xmlns="http://www.w3.org/2000/svg">
<rect width="100" height="37" rx="18.5" fill="white" fill-opacity="0.24"/>
<path d="M20.3178 20.43C20.3178 20.84 20.3878 21.19 20.5278 21.48C20.6678 21.77 20.8628 22.01 21.1128 22.2C21.3628 22.38 21.6478 22.515 21.9678 22.605C22.2978 22.685 22.6528 22.725 23.0328 22.725C23.4428 22.725 23.7928 22.68 24.0828 22.59C24.3728 22.49 24.6078 22.365 24.7878 22.215C24.9678 22.065 25.0978 21.895 25.1778 21.705C25.2578 21.505 25.2978 21.305 25.2978 21.105C25.2978 20.695 25.2028 20.395 25.0128 20.205C24.8328 20.005 24.6328 19.865 24.4128 19.785C24.0328 19.645 23.5878 19.515 23.0778 19.395C22.5778 19.265 21.9578 19.1 21.2178 18.9C20.7578 18.78 20.3728 18.625 20.0628 18.435C19.7628 18.235 19.5228 18.015 19.3428 17.775C19.1628 17.535 19.0328 17.28 18.9528 17.01C18.8828 16.74 18.8478 16.465 18.8478 16.185C18.8478 15.645 18.9578 15.18 19.1778 14.79C19.4078 14.39 19.7078 14.06 20.0778 13.8C20.4478 13.54 20.8678 13.35 21.3378 13.23C21.8078 13.1 22.2828 13.035 22.7628 13.035C23.3228 13.035 23.8478 13.11 24.3378 13.26C24.8378 13.4 25.2728 13.615 25.6428 13.905C26.0228 14.195 26.3228 14.555 26.5428 14.985C26.7628 15.405 26.8728 15.895 26.8728 16.455H24.9978C24.9478 15.765 24.7128 15.28 24.2928 15C23.8728 14.71 23.3378 14.565 22.6878 14.565C22.4678 14.565 22.2428 14.59 22.0128 14.64C21.7828 14.68 21.5728 14.755 21.3828 14.865C21.1928 14.965 21.0328 15.105 20.9028 15.285C20.7828 15.465 20.7228 15.69 20.7228 15.96C20.7228 16.34 20.8378 16.64 21.0678 16.86C21.3078 17.07 21.6178 17.23 21.9978 17.34C22.0378 17.35 22.1928 17.395 22.4628 17.475C22.7428 17.545 23.0528 17.625 23.3928 17.715C23.7328 17.805 24.0628 17.895 24.3828 17.985C24.7128 18.065 24.9478 18.125 25.0878 18.165C25.4378 18.275 25.7428 18.425 26.0028 18.615C26.2628 18.805 26.4778 19.025 26.6478 19.275C26.8278 19.515 26.9578 19.775 27.0378 20.055C27.1278 20.335 27.1728 20.615 27.1728 20.895C27.1728 21.495 27.0478 22.01 26.7978 22.44C26.5578 22.86 26.2378 23.205 25.8378 23.475C25.4378 23.745 24.9828 23.94 24.4728 24.06C23.9628 24.19 23.4428 24.255 22.9128 24.255C22.3028 24.255 21.7278 24.18 21.1878 24.03C20.6478 23.88 20.1778 23.65 19.7778 23.34C19.3778 23.03 19.0578 22.635 18.8178 22.155C18.5778 21.665 18.4528 21.09 18.4428 20.43H20.3178ZM34.0493 19.44C34.0293 19.17 33.9693 18.91 33.8693 18.66C33.7793 18.41 33.6493 18.195 33.4793 18.015C33.3193 17.825 33.1193 17.675 32.8793 17.565C32.6493 17.445 32.3893 17.385 32.0993 17.385C31.7993 17.385 31.5243 17.44 31.2743 17.55C31.0343 17.65 30.8243 17.795 30.6443 17.985C30.4743 18.165 30.3343 18.38 30.2243 18.63C30.1243 18.88 30.0693 19.15 30.0593 19.44H34.0493ZM30.0593 20.565C30.0593 20.865 30.0993 21.155 30.1793 21.435C30.2693 21.715 30.3993 21.96 30.5693 22.17C30.7393 22.38 30.9543 22.55 31.2143 22.68C31.4743 22.8 31.7843 22.86 32.1443 22.86C32.6443 22.86 33.0443 22.755 33.3443 22.545C33.6543 22.325 33.8843 22 34.0343 21.57H35.6543C35.5643 21.99 35.4093 22.365 35.1893 22.695C34.9693 23.025 34.7043 23.305 34.3943 23.535C34.0843 23.755 33.7343 23.92 33.3443 24.03C32.9643 24.15 32.5643 24.21 32.1443 24.21C31.5343 24.21 30.9943 24.11 30.5243 23.91C30.0543 23.71 29.6543 23.43 29.3243 23.07C29.0043 22.71 28.7593 22.28 28.5893 21.78C28.4293 21.28 28.3493 20.73 28.3493 20.13C28.3493 19.58 28.4343 19.06 28.6043 18.57C28.7843 18.07 29.0343 17.635 29.3543 17.265C29.6843 16.885 30.0793 16.585 30.5393 16.365C30.9993 16.145 31.5193 16.035 32.0993 16.035C32.7093 16.035 33.2543 16.165 33.7343 16.425C34.2243 16.675 34.6293 17.01 34.9493 17.43C35.2693 17.85 35.4993 18.335 35.6393 18.885C35.7893 19.425 35.8293 19.985 35.7593 20.565H30.0593ZM43.7043 22.275C43.7043 22.485 43.7293 22.635 43.7793 22.725C43.8393 22.815 43.9493 22.86 44.1093 22.86C44.1593 22.86 44.2193 22.86 44.2893 22.86C44.3593 22.86 44.4393 22.85 44.5293 22.83V24.015C44.4693 24.035 44.3893 24.055 44.2893 24.075C44.1993 24.105 44.1043 24.13 44.0043 24.15C43.9043 24.17 43.8043 24.185 43.7043 24.195C43.6043 24.205 43.5193 24.21 43.4493 24.21C43.0993 24.21 42.8093 24.14 42.5793 24C42.3493 23.86 42.1993 23.615 42.1293 23.265C41.7893 23.595 41.3693 23.835 40.8693 23.985C40.3793 24.135 39.9043 24.21 39.4443 24.21C39.0943 24.21 38.7593 24.16 38.4393 24.06C38.1193 23.97 37.8343 23.835 37.5843 23.655C37.3443 23.465 37.1493 23.23 36.9993 22.95C36.8593 22.66 36.7893 22.325 36.7893 21.945C36.7893 21.465 36.8743 21.075 37.0443 20.775C37.2243 20.475 37.4543 20.24 37.7343 20.07C38.0243 19.9 38.3443 19.78 38.6943 19.71C39.0543 19.63 39.4143 19.57 39.7743 19.53C40.0843 19.47 40.3793 19.43 40.6593 19.41C40.9393 19.38 41.1843 19.335 41.3943 19.275C41.6143 19.215 41.7843 19.125 41.9043 19.005C42.0343 18.875 42.0993 18.685 42.0993 18.435C42.0993 18.215 42.0443 18.035 41.9343 17.895C41.8343 17.755 41.7043 17.65 41.5443 17.58C41.3943 17.5 41.2243 17.45 41.0343 17.43C40.8443 17.4 40.6643 17.385 40.4943 17.385C40.0143 17.385 39.6193 17.485 39.3093 17.685C38.9993 17.885 38.8243 18.195 38.7843 18.615H37.0743C37.1043 18.115 37.2243 17.7 37.4343 17.37C37.6443 17.04 37.9093 16.775 38.2293 16.575C38.5593 16.375 38.9293 16.235 39.3393 16.155C39.7493 16.075 40.1693 16.035 40.5993 16.035C40.9793 16.035 41.3543 16.075 41.7243 16.155C42.0943 16.235 42.4243 16.365 42.7143 16.545C43.0143 16.725 43.2543 16.96 43.4343 17.25C43.6143 17.53 43.7043 17.875 43.7043 18.285V22.275ZM41.9943 20.115C41.7343 20.285 41.4143 20.39 41.0343 20.43C40.6543 20.46 40.2743 20.51 39.8943 20.58C39.7143 20.61 39.5393 20.655 39.3693 20.715C39.1993 20.765 39.0493 20.84 38.9193 20.94C38.7893 21.03 38.6843 21.155 38.6043 21.315C38.5343 21.465 38.4993 21.65 38.4993 21.87C38.4993 22.06 38.5543 22.22 38.6643 22.35C38.7743 22.48 38.9043 22.585 39.0543 22.665C39.2143 22.735 39.3843 22.785 39.5643 22.815C39.7543 22.845 39.9243 22.86 40.0743 22.86C40.2643 22.86 40.4693 22.835 40.6893 22.785C40.9093 22.735 41.1143 22.65 41.3043 22.53C41.5043 22.41 41.6693 22.26 41.7993 22.08C41.9293 21.89 41.9943 21.66 41.9943 21.39V20.115ZM45.6942 16.245H47.2992V17.745H47.3292C47.3792 17.535 47.4742 17.33 47.6142 17.13C47.7642 16.93 47.9392 16.75 48.1392 16.59C48.3492 16.42 48.5792 16.285 48.8292 16.185C49.0792 16.085 49.3342 16.035 49.5942 16.035C49.7942 16.035 49.9292 16.04 49.9992 16.05C50.0792 16.06 50.1592 16.07 50.2392 16.08V17.73C50.1192 17.71 49.9942 17.695 49.8642 17.685C49.7442 17.665 49.6242 17.655 49.5042 17.655C49.2142 17.655 48.9392 17.715 48.6792 17.835C48.4292 17.945 48.2092 18.115 48.0192 18.345C47.8292 18.565 47.6792 18.84 47.5692 19.17C47.4592 19.5 47.4042 19.88 47.4042 20.31V24H45.6942V16.245ZM56.089 18.84C56.019 18.36 55.824 18 55.504 17.76C55.194 17.51 54.799 17.385 54.319 17.385C54.099 17.385 53.864 17.425 53.614 17.505C53.364 17.575 53.134 17.715 52.924 17.925C52.714 18.125 52.539 18.41 52.399 18.78C52.259 19.14 52.189 19.615 52.189 20.205C52.189 20.525 52.224 20.845 52.294 21.165C52.374 21.485 52.494 21.77 52.654 22.02C52.824 22.27 53.039 22.475 53.299 22.635C53.559 22.785 53.874 22.86 54.244 22.86C54.744 22.86 55.154 22.705 55.474 22.395C55.804 22.085 56.009 21.65 56.089 21.09H57.799C57.639 22.1 57.254 22.875 56.644 23.415C56.044 23.945 55.244 24.21 54.244 24.21C53.634 24.21 53.094 24.11 52.624 23.91C52.164 23.7 51.774 23.42 51.454 23.07C51.134 22.71 50.889 22.285 50.719 21.795C50.559 21.305 50.479 20.775 50.479 20.205C50.479 19.625 50.559 19.08 50.719 18.57C50.879 18.06 51.119 17.62 51.439 17.25C51.759 16.87 52.154 16.575 52.624 16.365C53.104 16.145 53.664 16.035 54.304 16.035C54.754 16.035 55.179 16.095 55.579 16.215C55.989 16.325 56.349 16.495 56.659 16.725C56.979 16.955 57.239 17.245 57.439 17.595C57.639 17.945 57.759 18.36 57.799 18.84H56.089ZM59.339 13.29H61.049V17.265H61.079C61.289 16.915 61.599 16.625 62.009 16.395C62.429 16.155 62.894 16.035 63.404 16.035C64.254 16.035 64.924 16.255 65.414 16.695C65.904 17.135 66.149 17.795 66.149 18.675V24H64.439V19.125C64.419 18.515 64.289 18.075 64.049 17.805C63.809 17.525 63.434 17.385 62.924 17.385C62.634 17.385 62.374 17.44 62.144 17.55C61.914 17.65 61.719 17.795 61.559 17.985C61.399 18.165 61.274 18.38 61.184 18.63C61.094 18.88 61.049 19.145 61.049 19.425V24H59.339V13.29Z" fill="white"/>
<path fill-rule="evenodd" clip-rule="evenodd" d="M85.2929 18.5L82 15.2071L83.4142 13.7929L88.1213 18.5L83.4142 23.2071L82 21.7929L85.2929 18.5Z" fill="white"/>
</svg>
