<svg width="123" height="33" viewBox="0 0 123 33" fill="none" xmlns="http://www.w3.org/2000/svg">
<g clip-path="url(#clip0)">
<path d="M15.5258 18.93C15.5258 19.34 15.5958 19.69 15.7358 19.98C15.8758 20.27 16.0708 20.51 16.3208 20.7C16.5708 20.88 16.8558 21.015 17.1758 21.105C17.5058 21.185 17.8608 21.225 18.2408 21.225C18.6508 21.225 19.0008 21.18 19.2908 21.09C19.5808 20.99 19.8158 20.865 19.9958 20.715C20.1758 20.565 20.3058 20.395 20.3858 20.205C20.4658 20.005 20.5058 19.805 20.5058 19.605C20.5058 19.195 20.4108 18.895 20.2208 18.705C20.0408 18.505 19.8408 18.365 19.6208 18.285C19.2408 18.145 18.7958 18.015 18.2858 17.895C17.7858 17.765 17.1658 17.6 16.4258 17.4C15.9658 17.28 15.5808 17.125 15.2708 16.935C14.9708 16.735 14.7308 16.515 14.5508 16.275C14.3708 16.035 14.2408 15.78 14.1608 15.51C14.0908 15.24 14.0558 14.965 14.0558 14.685C14.0558 14.145 14.1658 13.68 14.3858 13.29C14.6158 12.89 14.9158 12.56 15.2858 12.3C15.6558 12.04 16.0758 11.85 16.5458 11.73C17.0158 11.6 17.4908 11.535 17.9708 11.535C18.5308 11.535 19.0558 11.61 19.5458 11.76C20.0458 11.9 20.4808 12.115 20.8508 12.405C21.2308 12.695 21.5308 13.055 21.7508 13.485C21.9708 13.905 22.0808 14.395 22.0808 14.955H20.2058C20.1558 14.265 19.9208 13.78 19.5008 13.5C19.0808 13.21 18.5458 13.065 17.8958 13.065C17.6758 13.065 17.4508 13.09 17.2208 13.14C16.9908 13.18 16.7808 13.255 16.5908 13.365C16.4008 13.465 16.2408 13.605 16.1108 13.785C15.9908 13.965 15.9308 14.19 15.9308 14.46C15.9308 14.84 16.0458 15.14 16.2758 15.36C16.5158 15.57 16.8258 15.73 17.2058 15.84C17.2458 15.85 17.4008 15.895 17.6708 15.975C17.9508 16.045 18.2608 16.125 18.6008 16.215C18.9408 16.305 19.2708 16.395 19.5908 16.485C19.9208 16.565 20.1558 16.625 20.2958 16.665C20.6458 16.775 20.9508 16.925 21.2108 17.115C21.4708 17.305 21.6858 17.525 21.8558 17.775C22.0358 18.015 22.1658 18.275 22.2458 18.555C22.3358 18.835 22.3808 19.115 22.3808 19.395C22.3808 19.995 22.2558 20.51 22.0058 20.94C21.7658 21.36 21.4458 21.705 21.0458 21.975C20.6458 22.245 20.1908 22.44 19.6808 22.56C19.1708 22.69 18.6508 22.755 18.1208 22.755C17.5108 22.755 16.9358 22.68 16.3958 22.53C15.8558 22.38 15.3858 22.15 14.9858 21.84C14.5858 21.53 14.2658 21.135 14.0258 20.655C13.7858 20.165 13.6608 19.59 13.6508 18.93H15.5258ZM29.2574 17.94C29.2374 17.67 29.1774 17.41 29.0774 17.16C28.9874 16.91 28.8574 16.695 28.6874 16.515C28.5274 16.325 28.3274 16.175 28.0874 16.065C27.8574 15.945 27.5974 15.885 27.3074 15.885C27.0074 15.885 26.7324 15.94 26.4824 16.05C26.2424 16.15 26.0324 16.295 25.8524 16.485C25.6824 16.665 25.5424 16.88 25.4324 17.13C25.3324 17.38 25.2774 17.65 25.2674 17.94H29.2574ZM25.2674 19.065C25.2674 19.365 25.3074 19.655 25.3874 19.935C25.4774 20.215 25.6074 20.46 25.7774 20.67C25.9474 20.88 26.1624 21.05 26.4224 21.18C26.6824 21.3 26.9924 21.36 27.3524 21.36C27.8524 21.36 28.2524 21.255 28.5524 21.045C28.8624 20.825 29.0924 20.5 29.2424 20.07H30.8624C30.7724 20.49 30.6174 20.865 30.3974 21.195C30.1774 21.525 29.9124 21.805 29.6024 22.035C29.2924 22.255 28.9424 22.42 28.5524 22.53C28.1724 22.65 27.7724 22.71 27.3524 22.71C26.7424 22.71 26.2024 22.61 25.7324 22.41C25.2624 22.21 24.8624 21.93 24.5324 21.57C24.2124 21.21 23.9674 20.78 23.7974 20.28C23.6374 19.78 23.5574 19.23 23.5574 18.63C23.5574 18.08 23.6424 17.56 23.8124 17.07C23.9924 16.57 24.2424 16.135 24.5624 15.765C24.8924 15.385 25.2874 15.085 25.7474 14.865C26.2074 14.645 26.7274 14.535 27.3074 14.535C27.9174 14.535 28.4624 14.665 28.9424 14.925C29.4324 15.175 29.8374 15.51 30.1574 15.93C30.4774 16.35 30.7074 16.835 30.8474 17.385C30.9974 17.925 31.0374 18.485 30.9674 19.065H25.2674ZM32.4173 14.745H34.0373V15.885L34.0673 15.915C34.3273 15.485 34.6673 15.15 35.0873 14.91C35.5073 14.66 35.9723 14.535 36.4823 14.535C37.3323 14.535 38.0023 14.755 38.4923 15.195C38.9823 15.635 39.2273 16.295 39.2273 17.175V22.5H37.5173V17.625C37.4973 17.015 37.3673 16.575 37.1273 16.305C36.8873 16.025 36.5123 15.885 36.0023 15.885C35.7123 15.885 35.4523 15.94 35.2223 16.05C34.9923 16.15 34.7973 16.295 34.6373 16.485C34.4773 16.665 34.3523 16.88 34.2623 17.13C34.1723 17.38 34.1273 17.645 34.1273 17.925V22.5H32.4173V14.745ZM48.4856 22.5H46.8656V21.45H46.8356C46.6056 21.9 46.2706 22.225 45.8306 22.425C45.3906 22.615 44.9256 22.71 44.4356 22.71C43.8256 22.71 43.2906 22.605 42.8306 22.395C42.3806 22.175 42.0056 21.88 41.7056 21.51C41.4056 21.14 41.1806 20.705 41.0306 20.205C40.8806 19.695 40.8056 19.15 40.8056 18.57C40.8056 17.87 40.9006 17.265 41.0906 16.755C41.2806 16.245 41.5306 15.825 41.8406 15.495C42.1606 15.165 42.5206 14.925 42.9206 14.775C43.3306 14.615 43.7456 14.535 44.1656 14.535C44.4056 14.535 44.6506 14.56 44.9006 14.61C45.1506 14.65 45.3906 14.72 45.6206 14.82C45.8506 14.92 46.0606 15.05 46.2506 15.21C46.4506 15.36 46.6156 15.54 46.7456 15.75H46.7756V11.79H48.4856V22.5ZM42.5156 18.705C42.5156 19.035 42.5556 19.36 42.6356 19.68C42.7256 20 42.8556 20.285 43.0256 20.535C43.2056 20.785 43.4306 20.985 43.7006 21.135C43.9706 21.285 44.2906 21.36 44.6606 21.36C45.0406 21.36 45.3656 21.28 45.6356 21.12C45.9156 20.96 46.1406 20.75 46.3106 20.49C46.4906 20.23 46.6206 19.94 46.7006 19.62C46.7906 19.29 46.8356 18.955 46.8356 18.615C46.8356 17.755 46.6406 17.085 46.2506 16.605C45.8706 16.125 45.3506 15.885 44.6906 15.885C44.2906 15.885 43.9506 15.97 43.6706 16.14C43.4006 16.3 43.1756 16.515 42.9956 16.785C42.8256 17.045 42.7006 17.345 42.6206 17.685C42.5506 18.015 42.5156 18.355 42.5156 18.705ZM55.0653 11.79H59.7903C60.5503 11.79 61.1703 11.9 61.6503 12.12C62.1303 12.34 62.5003 12.615 62.7603 12.945C63.0203 13.275 63.1953 13.635 63.2853 14.025C63.3853 14.415 63.4353 14.775 63.4353 15.105C63.4353 15.435 63.3853 15.795 63.2853 16.185C63.1953 16.565 63.0203 16.92 62.7603 17.25C62.5003 17.58 62.1303 17.855 61.6503 18.075C61.1703 18.285 60.5503 18.39 59.7903 18.39H56.9403V22.5H55.0653V11.79ZM56.9403 16.86H59.6853C59.8953 16.86 60.1103 16.83 60.3303 16.77C60.5503 16.71 60.7503 16.615 60.9303 16.485C61.1203 16.345 61.2703 16.165 61.3803 15.945C61.5003 15.715 61.5603 15.43 61.5603 15.09C61.5603 14.74 61.5103 14.45 61.4103 14.22C61.3103 13.99 61.1753 13.81 61.0053 13.68C60.8353 13.54 60.6403 13.445 60.4203 13.395C60.2003 13.345 59.9653 13.32 59.7153 13.32H56.9403V16.86ZM65.2202 11.79H69.6602C70.4802 11.79 71.1902 11.93 71.7902 12.21C72.3902 12.49 72.8802 12.875 73.2602 13.365C73.6402 13.845 73.9202 14.41 74.1002 15.06C74.2902 15.71 74.3852 16.405 74.3852 17.145C74.3852 17.885 74.2902 18.58 74.1002 19.23C73.9202 19.88 73.6402 20.45 73.2602 20.94C72.8802 21.42 72.3902 21.8 71.7902 22.08C71.1902 22.36 70.4802 22.5 69.6602 22.5H65.2202V11.79ZM67.0952 20.97H68.9402C69.6702 20.97 70.2652 20.875 70.7252 20.685C71.1952 20.485 71.5602 20.215 71.8202 19.875C72.0902 19.525 72.2702 19.12 72.3602 18.66C72.4602 18.19 72.5102 17.685 72.5102 17.145C72.5102 16.605 72.4602 16.105 72.3602 15.645C72.2702 15.175 72.0902 14.77 71.8202 14.43C71.5602 14.08 71.1952 13.81 70.7252 13.62C70.2652 13.42 69.6702 13.32 68.9402 13.32H67.0952V20.97ZM76.1954 11.79H83.5904V13.41H78.0704V16.215H82.9154V17.745H78.0704V22.5H76.1954V11.79ZM85.252 15.15C85.612 15.1 85.852 14.95 85.972 14.7C86.102 14.44 86.167 14.145 86.167 13.815H85.252V11.79H87.127V13.815C87.127 14.395 86.957 14.89 86.617 15.3C86.287 15.7 85.832 15.94 85.252 16.02V15.15ZM89.4985 20.01C89.5485 20.51 89.7385 20.86 90.0685 21.06C90.3985 21.26 90.7935 21.36 91.2535 21.36C91.4135 21.36 91.5935 21.35 91.7935 21.33C92.0035 21.3 92.1985 21.25 92.3785 21.18C92.5585 21.11 92.7035 21.01 92.8135 20.88C92.9335 20.74 92.9885 20.56 92.9785 20.34C92.9685 20.12 92.8885 19.94 92.7385 19.8C92.5885 19.66 92.3935 19.55 92.1535 19.47C91.9235 19.38 91.6585 19.305 91.3585 19.245C91.0585 19.185 90.7535 19.12 90.4435 19.05C90.1235 18.98 89.8135 18.895 89.5135 18.795C89.2235 18.695 88.9585 18.56 88.7185 18.39C88.4885 18.22 88.3035 18.005 88.1635 17.745C88.0235 17.475 87.9535 17.145 87.9535 16.755C87.9535 16.335 88.0535 15.985 88.2535 15.705C88.4635 15.415 88.7235 15.185 89.0335 15.015C89.3535 14.835 89.7035 14.71 90.0835 14.64C90.4735 14.57 90.8435 14.535 91.1935 14.535C91.5935 14.535 91.9735 14.58 92.3335 14.67C92.7035 14.75 93.0335 14.885 93.3235 15.075C93.6235 15.265 93.8685 15.515 94.0585 15.825C94.2585 16.125 94.3835 16.49 94.4335 16.92H92.6485C92.5685 16.51 92.3785 16.235 92.0785 16.095C91.7885 15.955 91.4535 15.885 91.0735 15.885C90.9535 15.885 90.8085 15.895 90.6385 15.915C90.4785 15.935 90.3235 15.975 90.1735 16.035C90.0335 16.085 89.9135 16.165 89.8135 16.275C89.7135 16.375 89.6635 16.51 89.6635 16.68C89.6635 16.89 89.7335 17.06 89.8735 17.19C90.0235 17.32 90.2135 17.43 90.4435 17.52C90.6835 17.6 90.9535 17.67 91.2535 17.73C91.5535 17.79 91.8635 17.855 92.1835 17.925C92.4935 17.995 92.7985 18.08 93.0985 18.18C93.3985 18.28 93.6635 18.415 93.8935 18.585C94.1335 18.755 94.3235 18.97 94.4635 19.23C94.6135 19.49 94.6885 19.81 94.6885 20.19C94.6885 20.65 94.5835 21.04 94.3735 21.36C94.1635 21.68 93.8885 21.94 93.5485 22.14C93.2185 22.34 92.8485 22.485 92.4385 22.575C92.0285 22.665 91.6235 22.71 91.2235 22.71C90.7335 22.71 90.2785 22.655 89.8585 22.545C89.4485 22.435 89.0885 22.27 88.7785 22.05C88.4785 21.82 88.2385 21.54 88.0585 21.21C87.8885 20.87 87.7985 20.47 87.7885 20.01H89.4985Z" fill="#0A2540"/>
<path fill-rule="evenodd" clip-rule="evenodd" d="M106.414 16.5L103.121 13.2071L104.536 11.7929L109.243 16.5L104.536 21.2071L103.121 19.7929L106.414 16.5Z" fill="#0A2540"/>
</g>
<defs>
<clipPath id="clip0">
<path d="M0.121338 16.5C0.121338 7.3873 7.50864 0 16.6213 0H105.743C114.855 0 122.243 7.3873 122.243 16.5C122.243 25.6127 114.855 33 105.743 33H16.6213C7.50864 33 0.121338 25.6127 0.121338 16.5Z" fill="white"/>
</clipPath>
</defs>
</svg>
