<svg width="49" height="46" viewBox="0 0 49 46" fill="none" xmlns="http://www.w3.org/2000/svg">
<ellipse cx="24.25" cy="24" rx="20.2083" ry="20" fill="#E33698"/>
<path d="M24.25 14.1622C27.4875 14.1622 27.871 14.1744 29.1495 14.2321C30.3317 14.2855 30.9737 14.481 31.401 14.6453C31.9669 14.863 32.3708 15.123 32.7951 15.5429C33.2194 15.9629 33.4822 16.3626 33.7021 16.9227C33.8682 17.3456 34.0657 17.981 34.1196 19.1509C34.1779 20.4163 34.1903 20.7958 34.1903 23.9999C34.1903 27.2041 34.1779 27.5836 34.1196 28.849C34.0657 30.019 33.8682 30.6543 33.7021 31.0772C33.4822 31.6373 33.2194 32.0371 32.7952 32.457C32.3708 32.8769 31.9669 33.1369 31.401 33.3546C30.9737 33.5189 30.3317 33.7144 29.1495 33.7678C27.8712 33.8255 27.4877 33.8378 24.25 33.8378C21.0123 33.8378 20.6288 33.8255 19.3505 33.7678C18.1683 33.7144 17.5263 33.5189 17.099 33.3546C16.5331 33.1369 16.1291 32.8769 15.7049 32.457C15.2806 32.0371 15.0178 31.6373 14.7979 31.0772C14.6318 30.6543 14.4343 30.019 14.3804 28.849C14.3221 27.5836 14.3097 27.2041 14.3097 23.9999C14.3097 20.7958 14.3221 20.4163 14.3804 19.1509C14.4343 17.981 14.6318 17.3456 14.7979 16.9227C15.0178 16.3626 15.2806 15.9629 15.7049 15.543C16.1291 15.123 16.5331 14.863 17.099 14.6453C17.5263 14.481 18.1683 14.2855 19.3505 14.2321C20.629 14.1744 21.0125 14.1622 24.25 14.1622ZM24.25 12C20.957 12 20.5441 12.0138 19.2509 12.0722C17.9603 12.1305 17.0789 12.3333 16.3077 12.63C15.5103 12.9366 14.8342 13.3469 14.16 14.0141C13.486 14.6812 13.0714 15.3504 12.7616 16.1395C12.4618 16.9028 12.2568 17.7751 12.198 19.0524C12.139 20.3323 12.125 20.741 12.125 23.9999C12.125 27.2589 12.139 27.6676 12.198 28.9475C12.2568 30.2248 12.4618 31.0971 12.7616 31.8604C13.0714 32.6495 13.486 33.3187 14.16 33.9859C14.8342 34.653 15.5103 35.0633 16.3077 35.3699C17.0789 35.6666 17.9603 35.8694 19.2509 35.9277C20.5441 35.9861 20.957 35.9999 24.25 35.9999C27.543 35.9999 27.9559 35.9861 29.2491 35.9277C30.5397 35.8694 31.4211 35.6666 32.1923 35.3699C32.9897 35.0633 33.6658 34.653 34.34 33.9859C35.014 33.3187 35.4286 32.6495 35.7385 31.8604C36.0382 31.0971 36.2432 30.2248 36.302 28.9475C36.361 27.6676 36.375 27.2589 36.375 23.9999C36.375 20.741 36.361 20.3323 36.302 19.0524C36.2432 17.7751 36.0382 16.9028 35.7385 16.1395C35.4286 15.3504 35.014 14.6812 34.34 14.0141C33.6658 13.3469 32.9897 12.9366 32.1923 12.63C31.4211 12.3333 30.5397 12.1305 29.2491 12.0722C27.9559 12.0138 27.543 12 24.25 12Z" fill="white"/>
<path d="M24.2557 17.8434C20.8169 17.8434 18.0293 20.6022 18.0293 24.0055C18.0293 27.4088 20.8169 30.1677 24.2557 30.1677C27.6944 30.1677 30.482 27.4088 30.482 24.0055C30.482 20.6022 27.6944 17.8434 24.2557 17.8434ZM24.2557 28.0055C22.0235 28.0055 20.214 26.2147 20.214 24.0055C20.214 21.7964 22.0235 20.0055 24.2557 20.0055C26.4878 20.0055 28.2973 21.7964 28.2973 24.0055C28.2973 26.2147 26.4878 28.0055 24.2557 28.0055Z" fill="white"/>
<path d="M32.1826 17.5962C32.1826 18.3914 31.5311 19.0361 30.7276 19.0361C29.924 19.0361 29.2726 18.3914 29.2726 17.5962C29.2726 16.8009 29.924 16.1561 30.7276 16.1561C31.5311 16.1561 32.1826 16.8009 32.1826 17.5962Z" fill="white"/>
</svg>
