<svg width="49" height="46" viewBox="0 0 49 46" fill="none" xmlns="http://www.w3.org/2000/svg">
<ellipse cx="24.7083" cy="24" rx="20.2083" ry="20" fill="#0077B5"/>
<path fill-rule="evenodd" clip-rule="evenodd" d="M19.4285 14.2839C19.4285 15.529 18.4706 16.5366 16.9726 16.5366C15.5329 16.5366 14.575 15.529 14.6047 14.2839C14.575 12.9783 15.5329 12 17.0013 12C18.4706 12 19.3998 12.9783 19.4285 14.2839ZM14.7251 32.8191V18.3162H19.2793V32.8181H14.7251V32.8191Z" fill="white"/>
<path fill-rule="evenodd" clip-rule="evenodd" d="M22.9295 22.9446C22.9295 21.1357 22.8693 19.5935 22.8091 18.3182H26.7648L26.9751 20.305H27.065C27.6644 19.3854 29.1624 17.9927 31.5896 17.9927C34.5856 17.9927 36.8331 19.9502 36.8331 24.219V32.821H32.2788V24.7838C32.2788 22.9144 31.6202 21.6399 29.9721 21.6399C28.7131 21.6399 27.9646 22.4999 27.6653 23.3297C27.5449 23.6268 27.4856 24.0412 27.4856 24.4574V32.821H22.9314V22.9446H22.9295Z" fill="white"/>
</svg>
