<svg width="53" height="46" viewBox="0 0 53 46" fill="none" xmlns="http://www.w3.org/2000/svg">
<ellipse cx="26.6578" cy="23.4074" rx="21.7113" ry="19.5062" fill="#1DA1F2"/>
<path fill-rule="evenodd" clip-rule="evenodd" d="M39.6845 15.9059C38.7267 16.2882 37.6959 16.5457 36.6148 16.6619C37.7185 16.0674 38.5661 15.1265 38.9646 14.0054C37.933 14.5562 36.7876 14.9549 35.571 15.171C34.5958 14.2379 33.2055 13.6543 31.6693 13.6543C28.7176 13.6543 26.3243 15.8045 26.3243 18.4564C26.3243 18.8324 26.3721 19.1991 26.4632 19.551C22.0205 19.3513 18.0824 17.439 15.4459 14.5336C14.9857 15.2428 14.7226 16.0674 14.7226 16.9475C14.7226 18.6132 15.6648 20.0831 17.1002 20.9444C16.2231 20.9195 15.3999 20.7034 14.6783 20.3437V20.4038C14.6783 22.7311 16.5219 24.6714 18.9655 25.1138C18.5174 25.223 18.045 25.2823 17.5579 25.2823C17.2131 25.2823 16.8779 25.2519 16.5514 25.1957C17.2313 27.1033 19.2061 28.4921 21.5447 28.5311C19.7158 29.8184 17.4111 30.5869 14.9067 30.5869C14.4742 30.5869 14.0487 30.5642 13.631 30.519C15.9965 31.8812 18.8057 32.677 21.8243 32.677C31.6554 32.677 37.0316 25.3596 37.0316 19.0142C37.0316 18.8059 37.0273 18.5984 37.016 18.3932C38.0615 17.7144 38.9681 16.8687 39.6845 15.9059Z" fill="white"/>
</svg>
