<svg width="49" height="46" viewBox="0 0 49 46" fill="none" xmlns="http://www.w3.org/2000/svg">
<ellipse cx="24.5" cy="24" rx="20.2083" ry="20" fill="#FF0000"/>
<path fill-rule="evenodd" clip-rule="evenodd" d="M35.9182 16.3781C36.3215 16.7772 36.6121 17.2739 36.761 17.8187C37.6188 21.2357 37.4206 26.6324 36.7777 30.1813C36.6287 30.7261 36.3382 31.2228 35.9349 31.6219C35.5316 32.021 35.0298 32.3086 34.4793 32.456C32.464 33 24.3529 33 24.3529 33C24.3529 33 16.2418 33 14.2265 32.456C13.676 32.3086 13.1742 32.021 12.7709 31.6219C12.3677 31.2228 12.0771 30.7261 11.9281 30.1813C11.0654 26.7791 11.3019 21.3791 11.9115 17.8352C12.0604 17.2903 12.351 16.7936 12.7543 16.3945C13.1575 15.9954 13.6594 15.7079 14.2099 15.5604C16.2252 15.0165 24.3362 15 24.3362 15C24.3362 15 32.4473 15 34.4626 15.544C35.0131 15.6914 35.515 15.979 35.9182 16.3781ZM28.4834 24L21.7547 27.8571V20.1428L28.4834 24Z" fill="white"/>
</svg>
